<svg width="35" height="25" viewBox="0 0 90 90" fill="none" xmlns="http://www.w3.org/2000/svg">
<path d="M61.25 0C60.167 0 59.1284 0.430207 58.3626 1.19598C57.5969 1.96175 57.1667 3.00037 57.1667 4.08333C57.1667 5.1663 57.5969 6.20491 58.3626 6.97069C59.1284 7.73646 60.167 8.16667 61.25 8.16667H67.7262L50.1964 25.6964C49.4526 26.4665 49.041 27.498 49.0503 28.5686C49.0596 29.6393 49.4891 30.6634 50.2462 31.4205C51.0032 32.1776 52.0274 32.607 53.098 32.6163C54.1687 32.6256 55.2001 32.2141 55.9702 31.4702L73.5 13.9405V20.4167C73.5 21.4996 73.9302 22.5382 74.696 23.304C75.4617 24.0698 76.5004 24.5 77.5833 24.5C78.6663 24.5 79.7049 24.0698 80.4707 23.304C81.2365 22.5382 81.6667 21.4996 81.6667 20.4167V4.08333C81.6667 3.00037 81.2365 1.96175 80.4707 1.19598C79.7049 0.430207 78.6663 0 77.5833 0H61.25ZM8.16667 67.7262V61.25C8.16667 60.167 7.73646 59.1284 6.97069 58.3626C6.20491 57.5969 5.1663 57.1667 4.08333 57.1667C3.00037 57.1667 1.96175 57.5969 1.19598 58.3626C0.430207 59.1284 0 60.167 0 61.25V77.5833C0 78.6663 0.430207 79.7049 1.19598 80.4707C1.96175 81.2365 3.00037 81.6667 4.08333 81.6667H20.4167C21.4996 81.6667 22.5382 81.2365 23.304 80.4707C24.0698 79.7049 24.5 78.6663 24.5 77.5833C24.5 76.5004 24.0698 75.4617 23.304 74.696C22.5382 73.9302 21.4996 73.5 20.4167 73.5H13.9405L31.4702 55.9702C32.2141 55.2001 32.6256 54.1687 32.6163 53.098C32.607 52.0274 32.1776 51.0032 31.4205 50.2462C30.6634 49.4891 29.6393 49.0596 28.5686 49.0503C27.498 49.041 26.4665 49.4526 25.6964 50.1964L8.16667 67.7262Z" fill="grey"/>
</svg>
