
<svg version="1.0" xmlns="http://www.w3.org/2000/svg"
 width="406.000000pt" height="381.000000pt" viewBox="0 0 406.000000 381.000000"
 preserveAspectRatio="xMidYMid meet">

<g transform="translate(0.000000,381.000000) scale(0.100000,-0.100000)"
fill="#000000" stroke="none">
<path d="M840 2577 l0 -683 232 -175 c127 -96 436 -328 685 -516 l454 -342
-121 -91 -120 -91 -558 421 c-307 231 -561 420 -565 420 -4 0 -7 -111 -7 -247
l0 -248 555 -418 c305 -229 561 -420 568 -423 12 -4 847 614 899 665 15 15 -1
29 -230 201 -136 102 -502 378 -814 613 l-568 428 0 181 c0 143 3 178 13 171
125 -99 700 -523 707 -523 6 0 169 119 363 264 l352 265 5 -541 5 -541 195
-148 c107 -82 198 -149 203 -149 4 0 7 493 7 1095 0 602 -2 1095 -5 1095 -3 0
-257 -190 -565 -422 l-560 -421 -560 421 c-308 232 -562 422 -565 422 -3 0 -5
-307 -5 -683z"/>
</g>
</svg>
