<svg width="12" height="12" viewBox="0 0 12 12" fill="none" xmlns="http://www.w3.org/2000/svg">
<path d="M10.8333 5.82292C10.8333 7.15176 10.3055 8.42618 9.36582 9.36582C8.42618 10.3055 7.15176 10.8333 5.82292 10.8333V11.6458C9.03879 11.6458 11.6458 9.03879 11.6458 5.82292H10.8333ZM5.82292 10.8333C4.49407 10.8333 3.21965 10.3055 2.28002 9.36582C1.34038 8.42618 0.8125 7.15176 0.8125 5.82292H0C0 9.03879 2.60704 11.6458 5.82292 11.6458V10.8333ZM0.8125 5.82292C0.8125 4.49407 1.34038 3.21965 2.28002 2.28002C3.21965 1.34038 4.49407 0.8125 5.82292 0.8125V0C2.60704 0 0 2.60704 0 5.82292H0.8125ZM7.71875 7.04167C6.89271 7.04167 6.1005 6.71352 5.51641 6.12943C4.93231 5.54533 4.60417 4.75312 4.60417 3.92708H3.79167C3.79167 4.96861 4.20541 5.96748 4.94188 6.70395C5.67835 7.44042 6.67722 7.85417 7.71875 7.85417V7.04167ZM10.3865 5.53529C10.1093 5.99498 9.71803 6.37523 9.25062 6.63916C8.78321 6.90309 8.25553 7.04174 7.71875 7.04167V7.85417C8.3955 7.85437 9.06082 7.67967 9.65017 7.34703C10.2395 7.01439 10.7329 6.5351 11.0825 5.95562L10.3865 5.53529ZM4.60417 3.92708C4.60409 3.39031 4.74274 2.86262 5.00667 2.39521C5.2706 1.9278 5.65086 1.53654 6.11054 1.25937L5.69021 0.563875C5.11082 0.913404 4.63157 1.40671 4.29893 1.99597C3.9663 2.58522 3.79156 3.25042 3.79167 3.92708H4.60417ZM5.82292 0.8125C5.79569 0.811977 5.76885 0.806058 5.74393 0.795086C5.71901 0.784115 5.69652 0.768309 5.67775 0.748583C5.65491 0.725645 5.63945 0.69641 5.63333 0.664625C5.63117 0.647833 5.63225 0.599083 5.69021 0.563875L6.11054 1.25937C6.383 1.09471 6.47075 0.793 6.43879 0.55575C6.40521 0.309292 6.21129 0 5.82292 0V0.8125ZM11.0825 5.95562C11.0467 6.01358 10.998 6.01467 10.9812 6.0125C10.9494 6.00639 10.9202 5.99092 10.8972 5.96808C10.8775 5.94932 10.8617 5.92682 10.8507 5.9019C10.8398 5.87699 10.8339 5.85014 10.8333 5.82292H11.6458C11.6458 5.43454 11.3365 5.24062 11.0901 5.20704C10.8528 5.17508 10.5511 5.26283 10.3865 5.53529L11.0825 5.95562Z" fill="#A53A45"/>
</svg>
