<svg width="20" height="22" viewBox="0 0 20 22" fill="none" xmlns="http://www.w3.org/2000/svg">
<path d="M8.49928 2.06021e-08C10.0675 -0.000109149 11.6052 0.433645 12.9423 1.25327C14.2793 2.07289 15.3635 3.24643 16.0749 4.64403C16.7864 6.04163 17.0973 7.6088 16.9733 9.17214C16.8492 10.7355 16.2951 12.234 15.3723 13.502L15.1753 13.762L18.8273 17.414C19.0085 17.5935 19.1143 17.8356 19.123 18.0905C19.1316 18.3455 19.0425 18.5942 18.8738 18.7856C18.7051 18.977 18.4697 19.0967 18.2157 19.1202C17.9616 19.1437 17.7082 19.0692 17.5073 18.912L17.4133 18.828L13.7613 15.176C12.6967 16.015 11.447 16.5872 10.1163 16.8449C8.78562 17.1026 7.4126 17.0384 6.11179 16.6576C4.81098 16.2768 3.6201 15.5904 2.63851 14.6557C1.65692 13.7211 0.913084 12.5652 0.469055 11.2846C0.0250263 10.004 -0.106316 8.63574 0.0859852 7.29404C0.278287 5.95235 0.788656 4.67609 1.57451 3.57175C2.36037 2.46742 3.39893 1.56702 4.60353 0.945694C5.80814 0.324364 7.14387 0.000115493 8.49928 2.06021e-08ZM8.49928 2C6.77537 2 5.12207 2.68482 3.90308 3.90381C2.6841 5.12279 1.99928 6.77609 1.99928 8.5C1.99928 10.2239 2.6841 11.8772 3.90308 13.0962C5.12207 14.3152 6.77537 15 8.49928 15C10.2232 15 11.8765 14.3152 13.0955 13.0962C14.3145 11.8772 14.9993 10.2239 14.9993 8.5C14.9993 6.77609 14.3145 5.12279 13.0955 3.90381C11.8765 2.68482 10.2232 2 8.49928 2ZM8.49928 4C8.74421 4.00003 8.98061 4.08996 9.16365 4.25272C9.34668 4.41547 9.46362 4.63975 9.49228 4.883L9.49928 5V7.5H11.9993C12.2542 7.50028 12.4993 7.59788 12.6846 7.77285C12.87 7.94782 12.9815 8.18695 12.9964 8.44139C13.0114 8.69584 12.9286 8.94638 12.765 9.14183C12.6014 9.33729 12.3694 9.4629 12.1163 9.493L11.9993 9.5H9.49928V12C9.49899 12.2549 9.4014 12.5 9.22643 12.6854C9.05146 12.8707 8.81232 12.9822 8.55788 12.9972C8.30344 13.0121 8.0529 12.9293 7.85744 12.7657C7.66199 12.6021 7.53638 12.3701 7.50628 12.117L7.49928 12V9.5H4.99928C4.7444 9.49972 4.49924 9.40212 4.31391 9.22715C4.12857 9.05218 4.01704 8.81305 4.00211 8.55861C3.98717 8.30416 4.06995 8.05362 4.23354 7.85817C4.39713 7.66271 4.62918 7.5371 4.88228 7.507L4.99928 7.5H7.49928V5C7.49928 4.73478 7.60463 4.48043 7.79217 4.29289C7.97971 4.10536 8.23406 4 8.49928 4Z" fill="white"/>
</svg>
