<svg width="12" height="11" viewBox="0 0 12 11" fill="none" xmlns="http://www.w3.org/2000/svg">
<path fill-rule="evenodd" clip-rule="evenodd" d="M3.93475 0H8.06505C8.56683 0 8.98488 -4.43007e-08 9.31698 0.0475675C9.66694 0.0975135 9.98341 0.208108 10.2379 0.478649C10.4919 0.749784 10.5951 1.08692 10.6426 1.45973C10.6872 1.81351 10.6872 2.25946 10.6872 2.79341V7.12443L11.5317 8.05259L11.5334 8.05497L11.5379 8.05914L11.5418 8.06389L11.5451 8.06746L11.5507 8.0734L11.5563 8.07995L11.5591 8.08292L11.5635 8.08827L11.5686 8.09422L11.573 8.10016L11.5797 8.10908C11.7873 8.36476 11.9721 8.74768 11.9972 9.13V9.13238L11.9989 9.14605V9.15378L12 9.16211V9.23049C12 9.30778 12 9.42016 11.9972 9.46832C11.9735 9.86533 11.8148 10.2395 11.5507 10.5208C11.2867 10.8021 10.9354 10.9712 10.5628 10.9964C10.5137 11 10.4595 11 10.3892 11H1.61118C1.54086 11 1.48672 11 1.43816 10.9964C1.06529 10.9715 0.713768 10.8025 0.449488 10.5212C0.185209 10.2399 0.0263168 9.86552 0.00259812 9.46832C0.000216455 9.38947 -0.000527896 9.31057 0.000365556 9.23168V9.16211L0.000923664 9.15378V9.14665L0.00259812 9.13238V9.13C0.028273 8.74768 0.21302 8.36535 0.420651 8.10908L0.427349 8.10016L0.431814 8.09422L0.437396 8.08827L0.441303 8.08292L0.443535 8.07995L0.449675 8.074L0.455257 8.06746L0.458047 8.06389L0.462512 8.05914L0.46642 8.05497L0.468652 8.05259L1.31313 7.12443V2.79341C1.31313 2.25946 1.31313 1.81351 1.35778 1.46032C1.40467 1.08692 1.50848 0.749784 1.76244 0.479243C2.01696 0.208108 2.33343 0.0975135 2.68339 0.0475675C3.01548 -4.43007e-08 3.43298 0 3.93475 0ZM1.90868 7.75113L1.06364 8.68049C0.936939 8.83092 0.843728 9.0527 0.837588 9.20195V9.33454L0.838146 9.41184C0.848964 9.59245 0.92127 9.76265 1.0415 9.89051C1.16173 10.0184 1.32162 10.0951 1.49118 10.1063C1.5096 10.1081 1.53472 10.1081 1.62458 10.1081H10.3752C10.4645 10.1081 10.4902 10.1081 10.5092 10.1063C10.6785 10.0948 10.8382 10.018 10.9582 9.89014C11.0782 9.7623 11.1503 9.59226 11.1611 9.41184L11.1617 9.39103L11.1622 9.23822V9.20254C11.1561 9.0527 11.0629 8.83092 10.9356 8.68049L10.0906 7.75113H1.90868ZM9.84945 6.85924V2.82432C9.84945 2.25114 9.84834 1.86584 9.81206 1.57865C9.77745 1.30454 9.71773 1.18681 9.64461 1.10951C9.5715 1.03222 9.4621 0.968595 9.20479 0.931135C8.93521 0.893081 8.57353 0.891892 8.03547 0.891892H3.96434C3.42628 0.891892 3.0646 0.893081 2.79501 0.93173C2.53771 0.968595 2.4272 1.03222 2.35464 1.11011C2.28208 1.188 2.2218 1.30454 2.18719 1.57865C2.15091 1.86584 2.15035 2.25114 2.15035 2.82432V6.85924H9.84945ZM0.603166 8.78454L0.585863 8.7774L0.590887 8.78038L0.603166 8.78454ZM4.18592 9.06757C4.18592 8.9493 4.23002 8.83587 4.30853 8.75224C4.38703 8.6686 4.49351 8.62162 4.60453 8.62162H7.39527C7.5063 8.62162 7.61277 8.6686 7.69128 8.75224C7.76978 8.83587 7.81389 8.9493 7.81389 9.06757C7.81389 9.18584 7.76978 9.29927 7.69128 9.3829C7.61277 9.46653 7.5063 9.51351 7.39527 9.51351H4.60453C4.49351 9.51351 4.38703 9.46653 4.30853 9.3829C4.23002 9.29927 4.18592 9.18584 4.18592 9.06757Z" fill="#7C7C7C"/>
</svg>
