<svg width="12" height="12" viewBox="0 0 12 12" fill="none" xmlns="http://www.w3.org/2000/svg">
<path d="M6.59426 1.09091C8.93675 1.09091 10.7987 2.78182 10.7987 4.90909C10.7987 6.43636 9.83771 7.74545 8.39618 8.34545V10.9091H4.19171V9.27273H3.59108C2.93038 9.27273 2.3898 8.78182 2.3898 8.18182V6.54545H1.48885C1.24859 6.54545 1.0684 6.27273 1.24859 6.10909L2.3898 4.74545C2.50993 2.67273 4.31184 1.09091 6.59426 1.09091ZM6.59426 0C3.83133 0 1.54891 1.85455 1.24859 4.30909L0.28757 5.45455C-0.072812 5.89091 -0.0728121 6.43636 0.167443 6.87273C0.407698 7.25455 0.76808 7.52727 1.18853 7.58182V8.18182C1.18853 9.21818 1.96936 10.0364 2.99044 10.3091V12H9.59745V9C11.099 8.07273 12 6.6 12 4.90909C12 2.18182 9.59745 0 6.59426 0ZM7.1949 7.09091H5.99363V6.54545H7.1949V7.09091ZM8.15592 4.63636C7.97573 4.85455 7.79554 5.07273 7.49522 5.23636V6H5.69331V5.23636C4.85241 4.8 4.5521 3.76364 5.03261 3C5.51312 2.23636 6.65433 1.96364 7.49522 2.4C8.33611 2.83636 8.63643 3.87273 8.15592 4.63636Z" fill="#7C7C7C"/>
</svg>
