<svg width="13" height="9" viewBox="0 0 13 9" fill="none" xmlns="http://www.w3.org/2000/svg">
<path d="M1.3 9C0.9425 9 0.636567 8.88994 0.3822 8.66981C0.127833 8.44969 0.000433333 8.18475 0 7.875V1.125C0 0.815625 0.1274 0.550875 0.3822 0.33075C0.637 0.110625 0.942933 0.000375 1.3 0H11.7C12.0575 0 12.3636 0.11025 12.6184 0.33075C12.8732 0.55125 13.0004 0.816 13 1.125V7.875C13 8.18437 12.8728 8.44931 12.6184 8.66981C12.3641 8.89031 12.0579 9.00037 11.7 9H1.3ZM6.5 5.0625L1.3 2.25V7.875H11.7V2.25L6.5 5.0625ZM6.5 3.9375L11.7 1.125H1.3L6.5 3.9375ZM1.3 2.25V1.125V7.875V2.25Z" fill="#7C7C7C"/>
</svg>
