<svg width="9" height="6" viewBox="0 0 9 6" fill="none" xmlns="http://www.w3.org/2000/svg">
<path d="M7.61514 0.498621C7.04512 0.266181 6.42796 0.0974748 5.78509 0C5.77378 0.000140853 5.763 0.00418346 5.75509 0.0112472C5.67794 0.134965 5.58794 0.296173 5.52794 0.419891C4.84606 0.329971 4.15262 0.329971 3.47074 0.419891C3.41074 0.292424 3.32073 0.134965 3.2393 0.0112472C3.23502 0.00374911 3.22216 0 3.2093 0C2.56643 0.0974748 1.95355 0.266181 1.37925 0.498621C1.37497 0.498621 1.37068 0.50237 1.36639 0.506119C0.200647 2.03197 -0.12079 3.51659 0.0377856 4.98621C0.0377856 4.99371 0.0420715 5.00121 0.0506431 5.00495C0.822093 5.49983 1.56354 5.79975 2.29642 5.99845C2.30928 6.0022 2.32213 5.99845 2.32642 5.99095C2.49785 5.78475 2.65214 5.56731 2.785 5.33862C2.79358 5.32362 2.785 5.30863 2.76786 5.30488C2.52357 5.2224 2.29213 5.12492 2.06498 5.01245C2.04784 5.00495 2.04784 4.98246 2.0607 4.97121C2.10784 4.94122 2.15499 4.90748 2.20213 4.87749C2.2107 4.86999 2.22356 4.86999 2.23213 4.87374C3.70646 5.46234 5.2965 5.46234 6.75368 4.87374C6.76226 4.86999 6.77511 4.86999 6.78368 4.87749C6.83083 4.91123 6.87797 4.94122 6.92512 4.97496C6.94226 4.98621 6.94226 5.0087 6.92083 5.0162C6.69797 5.13242 6.46225 5.22615 6.21796 5.30863C6.20081 5.31237 6.19653 5.33112 6.20081 5.34237C6.33796 5.57106 6.49225 5.7885 6.6594 5.9947C6.67225 5.99845 6.68511 6.0022 6.69797 5.99845C7.43513 5.79975 8.17658 5.49983 8.94803 5.00495C8.9566 5.00121 8.96089 4.99371 8.96089 4.98621C9.14946 3.2879 8.64802 1.81453 7.63228 0.506119C7.62799 0.50237 7.62371 0.498621 7.61514 0.498621ZM3.00787 4.09019C2.56643 4.09019 2.19784 3.73403 2.19784 3.2954C2.19784 2.85676 2.55785 2.5006 3.00787 2.5006C3.46217 2.5006 3.82218 2.86051 3.81789 3.2954C3.81789 3.73403 3.45788 4.09019 3.00787 4.09019ZM5.99509 4.09019C5.55365 4.09019 5.18507 3.73403 5.18507 3.2954C5.18507 2.85676 5.54508 2.5006 5.99509 2.5006C6.44939 2.5006 6.8094 2.86051 6.80511 3.2954C6.80511 3.73403 6.44939 4.09019 5.99509 4.09019Z" fill="#969595"/>
</svg>
