<svg width="20" height="20" viewBox="0 0 7 7" fill="none" xmlns="http://www.w3.org/2000/svg">
<path d="M3.5 0C3.04037 0 2.58525 0.0927778 2.16061 0.273036C1.73597 0.453294 1.35013 0.717503 1.02513 1.05058C0.368749 1.72325 0 2.63559 0 3.58689C0 5.1723 1.0045 6.51739 2.394 6.99444C2.569 7.02314 2.625 6.91195 2.625 6.8151V6.20891C1.6555 6.42413 1.449 5.72827 1.449 5.72827C1.288 5.31219 1.0605 5.201 1.0605 5.201C0.742 4.97861 1.085 4.98578 1.085 4.98578C1.435 5.01089 1.6205 5.35523 1.6205 5.35523C1.925 5.90044 2.4395 5.73903 2.639 5.65295C2.6705 5.4198 2.7615 5.26197 2.8595 5.1723C2.0825 5.08263 1.267 4.77416 1.267 3.40755C1.267 3.0094 1.4 2.69017 1.6275 2.4355C1.5925 2.34583 1.47 1.97279 1.6625 1.48856C1.6625 1.48856 1.9565 1.39172 2.625 1.85442C2.9015 1.77551 3.2025 1.73606 3.5 1.73606C3.7975 1.73606 4.0985 1.77551 4.375 1.85442C5.0435 1.39172 5.3375 1.48856 5.3375 1.48856C5.53 1.97279 5.4075 2.34583 5.3725 2.4355C5.6 2.69017 5.733 3.0094 5.733 3.40755C5.733 4.77774 4.914 5.07904 4.1335 5.16871C4.2595 5.27991 4.375 5.49871 4.375 5.83229V6.8151C4.375 6.91195 4.431 7.02673 4.6095 6.99444C5.999 6.5138 7 5.1723 7 3.58689C7 3.11586 6.90947 2.64943 6.73358 2.21425C6.55769 1.77907 6.29988 1.38365 5.97487 1.05058C5.64987 0.717503 5.26403 0.453294 4.83939 0.273036C4.41475 0.0927778 3.95963 0 3.5 0Z" fill="currentColor"/>
</svg>
