<svg width="8" height="8" viewBox="0 0 8 8" fill="none" xmlns="http://www.w3.org/2000/svg">
<path d="M6.66667 0C6.88768 0 7.09964 0.0877973 7.25592 0.244078C7.4122 0.400358 7.5 0.61232 7.5 0.833333V6.66667C7.5 6.88768 7.4122 7.09964 7.25592 7.25592C7.09964 7.4122 6.88768 7.5 6.66667 7.5H0.833333C0.61232 7.5 0.400358 7.4122 0.244078 7.25592C0.0877973 7.09964 0 6.88768 0 6.66667V0.833333C0 0.61232 0.0877973 0.400358 0.244078 0.244078C0.400358 0.0877973 0.61232 0 0.833333 0H6.66667ZM6.45833 6.45833V4.25C6.45833 3.88975 6.31522 3.54425 6.06049 3.28951C5.80575 3.03478 5.46025 2.89167 5.1 2.89167C4.74583 2.89167 4.33333 3.10833 4.13333 3.43333V2.97083H2.97083V6.45833H4.13333V4.40417C4.13333 4.08333 4.39167 3.82083 4.7125 3.82083C4.86721 3.82083 5.01558 3.88229 5.12498 3.99169C5.23438 4.10108 5.29583 4.24946 5.29583 4.40417V6.45833H6.45833ZM1.61667 2.31667C1.80232 2.31667 1.98037 2.24292 2.11164 2.11164C2.24292 1.98037 2.31667 1.80232 2.31667 1.61667C2.31667 1.22917 2.00417 0.9125 1.61667 0.9125C1.42991 0.9125 1.2508 0.986689 1.11875 1.11875C0.986689 1.2508 0.9125 1.42991 0.9125 1.61667C0.9125 2.00417 1.22917 2.31667 1.61667 2.31667ZM2.19583 6.45833V2.97083H1.04167V6.45833H2.19583Z" fill="#969595"/>
</svg>
