<svg width="20" height="20" viewBox="0 0 10 10" fill="none" xmlns="http://www.w3.org/2000/svg">
<path d="M5.6176 1L1.29517 4.74995C1.20182 4.83001 1.12756 4.92596 1.07685 5.03209C1.02614 5.13822 1 5.25234 1 5.36765C1 5.48295 1.02614 5.59707 1.07685 5.7032C1.12756 5.80933 1.20182 5.90529 1.29517 5.98535L3.89913 8.24407C4.29289 8.58531 4.9304 8.58531 5.32322 8.24407L6.62496 7.11492" stroke="currentColor" stroke-width="1.5" stroke-linecap="round" stroke-linejoin="round"/>
<path d="M2.09277 4.05745L3.89843 2.49081C4.0895 2.32671 4.34479 2.23499 4.61048 2.23499C4.87616 2.23499 5.13146 2.32671 5.32252 2.49081L6.62427 3.62038M4.28094 5.1666H8.49977" stroke="currentColor" stroke-width="1.5" stroke-linecap="round" stroke-linejoin="round"/>
</svg>
