<svg width="20" height="18" viewBox="0 0 20 18" fill="none" xmlns="http://www.w3.org/2000/svg">
<path d="M16.323 6.00695C16.097 5.97395 15.903 5.87695 15.677 5.81295C15.71 5.68395 15.71 5.55495 15.774 5.36095C16.226 3.03895 15.904 1.20095 14.871 0.554947C13.839 -0.0250532 12.161 0.586947 10.484 2.03895C10.354 2.16795 10.129 2.29695 10 2.48995C9.903 2.39395 9.774 2.29695 9.677 2.16795C7.903 0.587947 6.161 -0.0580532 5.065 0.554947C4.032 1.13495 3.71 2.90995 4.161 5.07095C4.194 5.29695 4.258 5.52295 4.291 5.71595C4.065 5.74895 3.806 5.84595 3.581 5.94195C1.484 6.68395 0 7.87795 0 9.00695C0 10.2319 1.58 11.4579 3.742 12.1669C3.935 12.1999 4.097 12.2969 4.29 12.2969C4.258 12.5229 4.161 12.7479 4.161 13.0069C3.741 15.1359 4.065 16.8449 5.097 17.4259C6.129 18.0709 7.935 17.4259 9.613 15.8779C9.742 15.7479 9.871 15.6519 10.033 15.5229C10.2019 15.6892 10.3853 15.8401 10.581 15.9739C12.194 17.4259 13.871 18.0069 14.936 17.4259C15.968 16.7809 16.323 14.9739 15.871 12.7159C15.839 12.5869 15.839 12.3619 15.741 12.1679C15.871 12.1359 15.968 12.1359 16.097 12.0379C18.355 11.3619 20 10.1369 20 8.90995C19.968 7.90995 18.42 6.74895 16.323 6.00695ZM11.033 2.71695C12.483 1.45795 13.839 1.00695 14.483 1.32895C15.129 1.68395 15.387 3.23195 14.968 5.26495C14.936 5.39395 14.936 5.48995 14.871 5.68395C14 5.48995 13.161 5.32895 12.258 5.26395C11.774 4.55495 11.226 3.81395 10.645 3.23195C10.7419 3.03805 10.873 2.86324 11.032 2.71595M6.547 11.0699C6.741 11.4249 6.967 11.7479 7.193 12.0699C6.58437 12.0361 5.97979 11.9497 5.386 11.8119C5.53497 11.2192 5.75138 10.6454 6.031 10.1019C6.161 10.3919 6.386 10.7799 6.547 11.0699ZM5.387 6.42495C5.97334 6.29311 6.56484 6.18535 7.16 6.10195C6.934 6.42495 6.74 6.74795 6.58 7.10195C6.418 7.45695 6.225 7.74795 6.031 8.13495C5.741 7.52195 5.581 6.97295 5.387 6.42495ZM6.417 9.10195C6.643 8.55395 6.966 8.06995 7.288 7.52195C7.611 6.97295 7.933 6.48895 8.224 5.97295C8.804 5.94095 9.385 5.94095 9.998 5.94095C10.578 5.94095 11.224 5.97295 11.772 5.97295C12.127 6.45695 12.417 6.97295 12.708 7.45695C13.03 7.94095 13.288 8.48995 13.578 9.03695C13.353 9.58695 13.03 10.0699 12.708 10.6189C12.385 11.1669 12.062 11.6509 11.772 12.1669C11.192 12.1989 10.611 12.1989 9.966 12.1989C9.321 12.1989 8.74 12.1669 8.192 12.1669C7.837 11.6829 7.546 11.1669 7.256 10.6189C6.966 10.0699 6.708 9.65095 6.417 9.10195ZM13.45 11.0699C13.643 10.7149 13.804 10.3929 13.998 10.0379C14.224 10.5859 14.45 11.1669 14.643 11.7479C14.063 11.8769 13.417 11.9729 12.773 12.0699C13.03 11.7479 13.256 11.3929 13.45 11.0699ZM14.03 8.10195C13.837 7.74795 13.675 7.42495 13.482 7.06995C13.289 6.71495 13.062 6.42495 12.902 6.13495C13.4972 6.21802 14.0886 6.32544 14.675 6.45695C14.482 7.00595 14.256 7.55395 14.03 8.10195ZM10 3.74995C10.42 4.20095 10.774 4.65295 11.129 5.13695C10.3553 5.10484 9.58067 5.10484 8.807 5.13695C9.226 4.62095 9.645 4.16895 10 3.74995ZM5.484 1.35995C6.129 1.00595 7.613 1.48995 9.097 2.90895C9.194 3.00595 9.29 3.10195 9.419 3.16695C8.839 3.81195 8.29 4.52195 7.742 5.19895C6.86366 5.28868 5.99122 5.42891 5.129 5.61895C5.097 5.42495 5.032 5.19895 5 5.03795C4.645 3.13495 4.871 1.71495 5.484 1.35995ZM4.58 11.6199C4.45 11.5869 4.257 11.5229 4.096 11.4899C3.19653 11.2462 2.35292 10.8302 1.612 10.2649C1.16 9.94195 0.934 9.55495 0.838 9.10295C0.838 8.39295 2.096 7.49095 3.87 6.84495C4.096 6.74895 4.322 6.71595 4.547 6.61995C4.805 7.48995 5.128 8.29695 5.483 9.10295C5.16 9.90995 4.805 10.7159 4.58 11.6199ZM9.064 15.3939C8.41195 15.9791 7.65724 16.4385 6.838 16.7489C6.62955 16.8573 6.39907 16.9165 6.16421 16.922C5.92935 16.9276 5.69634 16.8793 5.483 16.7809C4.838 16.4259 4.612 15.0709 4.934 13.2009C4.967 12.9739 5.031 12.7489 5.064 12.5549C5.934 12.7489 6.838 12.8779 7.676 12.9099C8.16 13.6199 8.773 14.3609 9.354 15.0069C9.322 15.1999 9.192 15.2969 9.064 15.3939ZM10.031 14.4909C9.611 14.0389 9.257 13.5869 8.87 13.1029C9.225 13.1029 9.58 13.1359 9.999 13.1359C10.418 13.1359 10.805 13.1359 11.16 13.1029C10.806 13.5229 10.45 13.9749 10.031 14.4909ZM15.128 15.6179C15.096 16.0699 14.87 16.5539 14.483 16.8439C13.838 17.1989 12.547 16.7479 11.128 15.4899C10.999 15.3599 10.806 15.2309 10.644 15.0379C11.2353 14.3819 11.7746 13.6808 12.257 12.9409C13.16 12.9089 14.031 12.7149 14.87 12.5209C14.902 12.6509 14.902 12.8439 14.967 12.9729C15.193 13.8769 15.193 14.7799 15.128 15.6179ZM15.838 11.4579C15.741 11.4899 15.612 11.4899 15.483 11.5539C15.225 10.6829 14.838 9.87695 14.483 9.06995C14.838 8.29595 15.16 7.45695 15.418 6.61895C15.644 6.65095 15.838 6.74795 15.999 6.81195C17.805 7.45695 19.063 8.35995 19.063 9.06995C19.096 9.81195 17.773 10.8119 15.838 11.4569M10 10.8439C11 10.8439 11.774 10.0379 11.774 9.06995C11.7696 8.60092 11.5812 8.15237 11.2494 7.8208C10.9177 7.48922 10.469 7.30112 10 7.29695C9.065 7.29695 8.226 8.10295 8.226 9.07095C8.226 10.0389 9 10.8449 10 10.8449" fill="black"/>
</svg>
