<svg width="19" height="19" viewBox="0 0 19 19" fill="none" xmlns="http://www.w3.org/2000/svg">
<path d="M8.08325 1V2.7M10.9166 1V2.7M5.72214 4.825H3.83325M5.72214 7.375H3.83325M15.1666 4.825H13.2777M15.1666 7.375H13.2777M10.7589 2.7H8.24097C7.05381 2.7 6.45881 2.7 6.09047 3.0315C5.72214 3.3647 5.72214 3.8985 5.72214 4.9678V7.2339C5.72214 8.30235 5.72214 8.837 6.09047 9.16935C6.45975 9.50085 7.05381 9.50085 8.24097 9.50085H10.7589C11.946 9.50085 12.5401 9.50085 12.9094 9.16935C13.2777 8.837 13.2777 8.30235 13.2777 7.2339V4.96695C13.2777 3.8985 13.2777 3.36385 12.9094 3.03235C12.5401 2.7 11.946 2.7 10.7589 2.7Z" stroke="CurrentColor" stroke-width="0.5" stroke-linecap="round" stroke-linejoin="round"/>
<path d="M1.58272 17.9354C1.7565 18 1.97656 18 2.41667 18C2.85678 18 3.07683 18 3.25061 17.9354C3.48156 17.8489 3.66498 17.6835 3.76061 17.4755C3.83333 17.3191 3.83333 17.1211 3.83333 16.725C3.83333 16.3289 3.83333 16.1308 3.76156 15.9744C3.6655 15.7665 3.48174 15.6015 3.25061 15.5154C3.07683 15.45 2.85678 15.45 2.41667 15.45C1.97656 15.45 1.7565 15.45 1.58272 15.5146C1.35177 15.601 1.16835 15.7664 1.07272 15.9744C1 16.1308 1 16.3289 1 16.725C1 17.1211 1 17.3191 1.07178 17.4755C1.16784 17.6834 1.35159 17.8493 1.58272 17.9354ZM8.66606 17.9354C8.83983 18 9.05989 18 9.5 18C9.94011 18 10.1602 18 10.3339 17.9354C10.5649 17.8489 10.7483 17.6835 10.8439 17.4755C10.9167 17.3191 10.9167 17.1211 10.9167 16.725C10.9167 16.3289 10.9167 16.1308 10.8449 15.9744C10.7488 15.7665 10.5651 15.6015 10.3339 15.5154C10.1602 15.45 9.94011 15.45 9.5 15.45C9.05989 15.45 8.83983 15.45 8.66606 15.5146C8.4351 15.601 8.25169 15.7664 8.15606 15.9744C8.08333 16.1308 8.08333 16.3289 8.08333 16.725C8.08333 17.1211 8.08333 17.3191 8.15511 17.4755C8.25117 17.6834 8.43492 17.8493 8.66606 17.9354Z" stroke="CurrentColor" stroke-width="0.5" stroke-linejoin="round"/>
<path d="M9.50008 15.45V9.5M2.41675 15.45C2.41675 14.2566 2.41675 13.659 2.73503 13.2306C2.87287 13.0449 3.05002 12.8855 3.25636 12.7614C3.73236 12.475 4.3963 12.475 5.7223 12.475H13.2779C14.6039 12.475 15.2678 12.475 15.7438 12.7614C15.9497 12.8855 16.1272 13.0453 16.2651 13.2306C16.5834 13.659 16.5834 14.2566 16.5834 15.45" stroke="CurrentColor" stroke-width="0.5" stroke-linecap="round" stroke-linejoin="round"/>
<path d="M15.7495 17.9354C15.9232 18 16.1433 18 16.5834 18C17.0235 18 17.2436 18 17.4174 17.9354C17.6483 17.8489 17.8317 17.6835 17.9274 17.4755C18.0001 17.3191 18.0001 17.1211 18.0001 16.725C18.0001 16.3289 18.0001 16.1308 17.9283 15.9744C17.8322 15.7665 17.6485 15.6015 17.4174 15.5154C17.2436 15.45 17.0235 15.45 16.5834 15.45C16.1433 15.45 15.9232 15.45 15.7495 15.5146C15.5185 15.601 15.3351 15.7664 15.2395 15.9744C15.1667 16.1308 15.1667 16.3289 15.1667 16.725C15.1667 17.1211 15.1667 17.3191 15.2385 17.4755C15.3346 17.6834 15.5183 17.8493 15.7495 17.9354Z" stroke="CurrentColor" stroke-width="0.5" stroke-linejoin="round"/>
</svg>
