<svg width="17" height="19" viewBox="0 0 17 19" fill="none" xmlns="http://www.w3.org/2000/svg">
<path d="M11.0659 8.51782V10.4822M13.8291 8.51782V10.4822M10.0791 9.50003H12.0528M12.8423 9.50003H14.8159" stroke="CurrentColor" stroke-width="0.5" stroke-linejoin="round"/>
<path d="M9.68712 11.0165C9.3697 11.4221 8.9329 11.719 8.43774 11.8656C7.94258 12.0122 7.41379 12.0012 6.9252 11.8342C6.43662 11.6671 6.01264 11.3524 5.71249 10.9339C5.41234 10.5154 5.25099 10.0141 5.25099 9.49994C5.25099 8.98576 5.41234 8.48443 5.71249 8.06594C6.01264 7.64746 6.43662 7.33273 6.9252 7.1657C7.41379 6.99868 7.94258 6.9877 8.43774 7.1343C8.9329 7.2809 9.3697 7.57775 9.68712 7.98341L11.855 6.74977C11.2626 5.8708 10.4022 5.20457 9.40044 4.84935C8.39873 4.49413 7.30884 4.46871 6.29151 4.77686C5.27419 5.085 4.38329 5.71038 3.75021 6.56078C3.11713 7.41117 2.77539 8.44154 2.77539 9.49994C2.77539 10.5583 3.11713 11.5887 3.75021 12.4391C4.38329 13.2895 5.27419 13.9149 6.29151 14.223C7.30884 14.5312 8.39873 14.5057 9.40044 14.1505C10.4022 13.7953 11.2626 13.1291 11.855 12.2501L9.68712 11.0165Z" stroke="CurrentColor" stroke-width="0.5" stroke-linecap="round" stroke-linejoin="round"/>
<path d="M1.36789 5.34017L8.07842 1.12141C8.20459 1.0421 8.35077 1 8.5 1C8.64923 1 8.79541 1.0421 8.92158 1.12141L15.6321 5.34017C15.7447 5.41097 15.8375 5.50897 15.9018 5.62507C15.9662 5.74116 15.9999 5.87156 16 6.00414V12.9959C15.9999 13.1284 15.9662 13.2588 15.9018 13.3749C15.8375 13.491 15.7447 13.589 15.6321 13.6598L8.92158 17.8786C8.79541 17.9579 8.64923 18 8.5 18C8.35077 18 8.20459 17.9579 8.07842 17.8786L1.36789 13.6598C1.25527 13.589 1.16248 13.491 1.09816 13.3749C1.03383 13.2588 1.00006 13.1284 1 12.9959V6.00336C1.00006 5.87078 1.03383 5.74037 1.09816 5.62428C1.16248 5.50819 1.25527 5.41097 1.36789 5.34017Z" stroke="CurrentColor" stroke-width="0.5" stroke-linejoin="round"/>
</svg>
