<svg width="17" height="19" viewBox="0 0 17 19" fill="none" xmlns="http://www.w3.org/2000/svg">
<path d="M10.7351 10.8536C10.4224 11.3394 9.95978 11.7101 9.41734 11.9094C8.8749 12.1087 8.28222 12.1259 7.72915 11.9582C7.17609 11.7906 6.69278 11.4473 6.35249 10.9803C6.01219 10.5134 5.83347 9.94832 5.84341 9.37073C5.85335 8.79313 6.05141 8.23452 6.40756 7.77957C6.76371 7.32461 7.25854 6.99812 7.81705 6.84957C8.37556 6.70103 8.96729 6.73853 9.50256 6.95639C10.0378 7.17425 10.4874 7.5606 10.7833 8.05688" stroke="CurrentColor" stroke-width="0.5" stroke-linecap="round" stroke-linejoin="round"/>
<path d="M10.7832 8.057L12.6251 6.95573C12.0758 6.03405 11.2409 5.31648 10.247 4.91179C9.25299 4.50709 8.15411 4.43735 7.1169 4.71312C6.07969 4.98889 5.1607 5.59514 4.49925 6.43998C3.83779 7.28481 3.46993 8.32217 3.45142 9.39479C3.43291 10.4674 3.76477 11.5168 4.39668 12.384C5.0286 13.2511 5.92612 13.8887 6.9532 14.2C7.98028 14.5114 9.08091 14.4796 10.0883 14.1094C11.0956 13.7392 11.9548 13.0508 12.5355 12.1486L10.7351 10.8533" stroke="CurrentColor" stroke-width="0.5" stroke-linecap="round" stroke-linejoin="round"/>
<path d="M8.5 1L1 5.07834V13.7094L8.5 18L16 13.7396V5.00661L8.5 1Z" stroke="CurrentColor" stroke-width="0.5" stroke-linecap="round" stroke-linejoin="round"/>
<path d="M12.902 10.7401V8.25977M13.9598 10.7401V8.25977M12.4187 8.93272H14.443M12.4187 10.0672H14.443" stroke="CurrentColor" stroke-width="0.5" stroke-linecap="round" stroke-linejoin="round"/>
</svg>
