<svg width="15" height="15" viewBox="0 0 15 15" fill="none" xmlns="http://www.w3.org/2000/svg">
<path d="M7.50062 0C3.29449 0 0 1.74294 0 3.96972V11.0291C0 13.2559 3.29326 15 7.49938 15C11.7055 15 15 13.2559 15 11.0291V3.97086C15 1.74408 11.7055 0.00113835 7.49938 0.00113835M7.49938 0.883424C11.0459 0.883424 14.0414 2.29736 14.0414 3.97086C14.0414 5.64435 11.0459 7.05943 7.49938 7.05943C3.95289 7.05943 0.956107 5.64549 0.956107 3.97086C0.956107 2.29622 3.9529 0.882286 7.50062 0.882286M14.0427 11.0291C14.0427 12.7038 11.0471 14.1177 7.50062 14.1177C3.95413 14.1177 0.957342 12.7038 0.957342 11.0303V9.47063C2.23339 10.6751 4.65824 11.4709 7.50062 11.4709C10.343 11.4709 12.7679 10.6751 14.0427 9.47063V11.0291ZM14.0427 7.50114C14.0427 9.17464 11.0471 10.5886 7.50062 10.5886C3.95413 10.5886 0.957342 9.17464 0.957342 7.50114V5.93921C2.23339 7.14253 4.65824 7.93944 7.50062 7.93944C10.343 7.93944 12.7679 7.14253 14.0427 5.93921V7.50114Z" fill="CurrentColor"/>
</svg>
