<svg width="20" height="15" viewBox="0 0 20 15" fill="none" xmlns="http://www.w3.org/2000/svg">
<path d="M7 14L1 7.5L7 1M10.588 14L17.8 1M11.2 4.54545C11.6774 4.54545 12.1352 4.35869 12.4728 4.02623C12.8104 3.69378 13 3.24288 13 2.77273C13 2.30257 12.8104 1.85167 12.4728 1.51922C12.1352 1.18677 11.6774 1 11.2 1C10.7226 1 10.2648 1.18677 9.92721 1.51922C9.58964 1.85167 9.4 2.30257 9.4 2.77273C9.4 3.24288 9.58964 3.69378 9.92721 4.02623C10.2648 4.35869 10.7226 4.54545 11.2 4.54545ZM17.2 14C17.6774 14 18.1352 13.8132 18.4728 13.4808C18.8104 13.1483 19 12.6974 19 12.2273C19 11.7571 18.8104 11.3062 18.4728 10.9738C18.1352 10.6413 17.6774 10.4545 17.2 10.4545C16.7226 10.4545 16.2648 10.6413 15.9272 10.9738C15.5896 11.3062 15.4 11.7571 15.4 12.2273C15.4 12.6974 15.5896 13.1483 15.9272 13.4808C16.2648 13.8132 16.7226 14 17.2 14Z" stroke="CurrentColor" stroke-linecap="round" stroke-linejoin="round"/>
</svg>
