<svg width="17" height="11" viewBox="0 0 17 11" fill="none" xmlns="http://www.w3.org/2000/svg">
<path d="M17 10.7085C16.3817 10.8839 15.9993 10.7161 15.6562 10.1416C14.886 8.85522 14.0358 7.62774 13.2154 6.37759C13.1097 6.21584 12.9998 6.05712 12.8629 5.85607C11.892 7.31634 10.9225 8.70707 10.0126 10.1537C9.68717 10.6707 9.34546 10.896 8.73797 10.7131L12.3883 5.2514L8.99019 0.318824C9.57462 0.191843 9.9787 0.256845 10.3367 0.840349C11.1272 2.12829 11.9991 3.35425 12.8683 4.65127C13.7429 3.35879 14.604 2.13131 15.4176 0.855466C15.7444 0.338475 16.0956 0.141958 16.6827 0.332429C16.2379 0.990004 15.8027 1.637 15.3647 2.27946C14.7735 3.14564 14.1931 4.02241 13.5802 4.87046C13.3619 5.17279 13.3971 5.36931 13.5924 5.65501C14.726 7.31634 15.8461 8.99429 17 10.7085ZM0.00406797 5.1607C0.101699 4.61499 0.166786 4.05869 0.302385 3.52356C1.11598 0.284055 4.4517 -1.06284 6.74332 0.944654C8.08575 2.12224 8.41932 3.78206 8.35288 5.6535H0.786472C0.672569 9.01092 2.84079 11.0381 5.60429 10.0041C6.57382 9.64128 7.14469 8.79475 7.4308 7.73658C7.5759 7.20599 7.81591 7.12284 8.26338 7.27401C8.03422 8.59823 7.51488 9.70477 6.43009 10.3971C4.8029 11.4341 2.4801 11.0985 1.25836 9.65791C0.536971 8.81138 0.230518 7.75775 0.094919 6.61946C0.0745793 6.43806 0.0325437 6.25968 0 6.07979C0.00271197 5.77343 0.00406797 5.46706 0.00406797 5.1607ZM0.800032 4.93546H7.63827C7.59352 2.50772 6.23754 0.782906 4.3839 0.767789C2.34992 0.749649 0.888171 2.43365 0.800032 4.93546Z" stroke="CurrentColor"/>
</svg>
