<svg width="14" height="17" viewBox="0 0 14 17" fill="none" xmlns="http://www.w3.org/2000/svg">
<path d="M9.79171 11.5679C7.84004 11.5679 6.25171 10.1916 6.25171 8.49941C6.25171 6.8072 7.84004 5.43091 9.79171 5.43091C11.7434 5.43091 13.3317 6.8072 13.3317 8.49941C13.3317 10.1916 11.7434 11.5679 9.79171 11.5679ZM9.79171 6.13924C8.29921 6.13924 7.08504 7.1982 7.08504 8.49941C7.08504 9.80062 8.29921 10.8596 9.79171 10.8596C11.2842 10.8596 12.4984 9.80062 12.4984 8.49941C12.4984 7.1982 11.2842 6.13924 9.79171 6.13924Z" fill="CurrentColor"/>
<path d="M3.54085 17C1.58835 17 1.67977e-05 15.6237 1.67977e-05 13.9315C1.67977e-05 12.7542 0.767517 11.7293 1.89085 11.2143C1.31707 10.9488 0.83842 10.5564 0.505563 10.0786C0.172707 9.60073 -0.00197218 9.0553 1.67977e-05 8.5C1.67977e-05 7.32417 0.76835 6.29992 1.89252 5.78425C1.31829 5.51869 0.839244 5.12608 0.506087 4.648C0.172931 4.16992 -0.00193096 3.62415 1.67977e-05 3.0685C1.67977e-05 1.37629 1.58835 0 3.54085 0H9.79335C11.745 0 13.3334 1.37771 13.3334 3.07133C13.3334 4.76354 11.745 6.13983 9.79252 6.13983L7.08085 6.13912V13.9315C7.08085 15.6237 5.49252 17 3.54085 17ZM3.54085 11.5685C2.04835 11.5685 0.83335 12.6289 0.83335 13.9315C0.83335 15.2327 2.04835 16.2917 3.54085 16.2917C5.03335 16.2917 6.24835 15.2327 6.24835 13.9315V5.78496C6.24835 5.69103 6.29225 5.60094 6.37039 5.53452C6.44853 5.46811 6.55451 5.43079 6.66502 5.43079H9.79335C10.515 5.43079 11.1934 5.18642 11.7034 4.74229C12.2175 4.29626 12.5038 3.69578 12.5 3.07133C12.5 1.76871 11.285 0.708333 9.79252 0.708333H3.54085C2.04835 0.708333 0.83335 1.76729 0.83335 3.0685C0.83335 4.36971 2.04835 5.42867 3.54085 5.42867C3.65136 5.42857 3.75738 5.4658 3.8356 5.53215C3.91382 5.5985 3.95782 5.68855 3.95793 5.78248C3.95804 5.87641 3.91425 5.96653 3.83619 6.03302C3.75813 6.0995 3.65219 6.13691 3.54168 6.137C2.04835 6.13983 0.83335 7.20021 0.83335 8.5C0.83335 9.80121 2.04835 10.8602 3.54085 10.8602C3.65136 10.8602 3.75734 10.8975 3.83548 10.9639C3.91362 11.0303 3.95752 11.1204 3.95752 11.2143C3.95752 11.3083 3.91362 11.3983 3.83548 11.4648C3.75734 11.5312 3.65136 11.5685 3.54085 11.5685Z" fill="CurrentColor"/>
</svg>
