<svg width="13" height="15" viewBox="0 0 15 17" fill="none" xmlns="http://www.w3.org/2000/svg">
<path d="M12.9993 5.61335V0.481145C12.9993 0.353537 12.9466 0.231156 12.8528 0.140924C12.7591 0.0506923 12.6319 5.19758e-07 12.4993 5.19758e-07H0.500678C0.399281 -0.000142881 0.300235 0.0293898 0.216683 0.08468C0.133131 0.13997 0.0690228 0.218404 0.0328656 0.309574C-0.00329165 0.400743 -0.00978884 0.500339 0.0142361 0.595145C0.038261 0.689951 0.0916723 0.775486 0.167383 0.840399L5.18515 5.1322H0.500678C0.368085 5.1322 0.240922 5.1829 0.147165 5.27313C0.0534072 5.36336 0.000734844 5.48574 0.000734844 5.61335V10.7456C0.000851533 10.8731 0.0536004 10.9954 0.147385 11.0856L6.14671 16.8593C6.21662 16.9265 6.30567 16.9722 6.40259 16.9908C6.49951 17.0093 6.59996 16.9998 6.69126 16.9634C6.78256 16.927 6.86061 16.8654 6.91555 16.7864C6.97049 16.7073 6.99986 16.6144 6.99994 16.5193V11.2267H12.4993C12.6007 11.2268 12.6998 11.1973 12.7833 11.142C12.8669 11.0867 12.931 11.0083 12.9671 10.9171C13.0033 10.826 13.0098 10.7264 12.9858 10.6315C12.9617 10.5367 12.9083 10.4512 12.8326 10.3863L7.81485 6.09449H12.4993C12.6319 6.09449 12.7591 6.0438 12.8528 5.95357C12.9466 5.86334 12.9993 5.74096 12.9993 5.61335ZM11.1845 10.2644H6.5C6.36741 10.2644 6.24024 10.3151 6.14649 10.4053C6.05273 10.4956 6.00006 10.6179 6.00006 10.7456V15.3573L1.00062 10.5459V6.09449H6.31002L11.1845 10.2644ZM11.9994 5.1322H6.68998L1.81553 0.962289H11.9994V5.1322Z" fill="CurrentColor" />
</svg>
