<svg width="20" height="19" viewBox="0 0 20 19" fill="none" xmlns="http://www.w3.org/2000/svg">
<path d="M9.79072 8.22461C10.1237 8.22461 10.4431 8.09415 10.6786 7.86192C10.9141 7.62969 11.0464 7.31472 11.0464 6.9863C11.0464 6.65788 10.9141 6.34292 10.6786 6.11069C10.4431 5.87846 10.1237 5.748 9.79072 5.748C9.4577 5.748 9.13832 5.87846 8.90284 6.11069C8.66736 6.34292 8.53507 6.65788 8.53507 6.9863C8.53507 7.31472 8.66736 7.62969 8.90284 7.86192C9.13832 8.09415 9.4577 8.22461 9.79072 8.22461ZM9.79072 8.22461V12.3523M9.79072 12.3523C10.1237 12.3523 10.4431 12.4828 10.6786 12.715C10.9141 12.9472 11.0464 13.2622 11.0464 13.5906C11.0464 13.919 10.9141 14.234 10.6786 14.4662C10.4431 14.6984 10.1237 14.8289 9.79072 14.8289C9.4577 14.8289 9.13832 14.6984 8.90284 14.4662C8.66736 14.234 8.53507 13.919 8.53507 13.5906C8.53507 13.2622 8.66736 12.9472 8.90284 12.715C9.13832 12.4828 9.4577 12.3523 9.79072 12.3523ZM12.4605 9.61922C12.696 9.38699 13.0154 9.25653 13.3484 9.25653C13.6814 9.25653 14.0008 9.38699 14.2362 9.61922C14.4717 9.85145 14.604 10.1664 14.604 10.4948C14.604 10.8233 14.4717 11.1382 14.2362 11.3705C14.0008 11.6027 13.6814 11.7331 13.3484 11.7331C13.0154 11.7331 12.696 11.6027 12.4605 11.3705C12.225 11.1382 12.0927 10.8233 12.0927 10.4948C12.0927 10.1664 12.225 9.85145 12.4605 9.61922ZM12.4605 9.61922L10.8371 8.01823M6.65161 4.09692L8.91923 6.09482" stroke="CurrentColor" stroke-width="0.5" stroke-linecap="round" stroke-linejoin="round"/>
<path d="M9.64507 1.14486C9.73925 1.0521 9.8669 1 10 1C10.1331 1 10.2608 1.0521 10.3549 1.14486L18.8531 9.52571C18.9472 9.61859 19 9.74448 19 9.87574C19 10.007 18.9472 10.1329 18.8531 10.2258L10.3549 18.6066C10.2608 18.6994 10.1331 18.7515 10 18.7515C9.8669 18.7515 9.73925 18.6994 9.64507 18.6066L1.14689 10.2258C1.05283 10.1329 1 10.007 1 9.87574C1 9.74448 1.05283 9.61859 1.14689 9.52571L9.64507 1.14486Z" stroke="CurrentColor" stroke-width="0.5" stroke-linecap="round" stroke-linejoin="round"/>
</svg>
