<svg width="17" height="18" viewBox="0 0 17 18" fill="none" xmlns="http://www.w3.org/2000/svg">
<path d="M11.7693 16.9998V14.7069C11.7981 14.3259 11.7486 13.9429 11.6239 13.5834C11.4992 13.2239 11.3023 12.8961 11.0462 12.6217C13.4616 12.3421 16 11.3914 16 7.02926C15.9998 5.91384 15.5867 4.84119 14.8462 4.03332C15.1968 3.05745 15.172 1.97879 14.7769 1.02141C14.7769 1.02141 13.8693 0.741784 11.7693 2.2038C10.0061 1.7083 8.14781 1.7083 6.38464 2.2038C4.28464 0.741784 3.37694 1.02141 3.37694 1.02141C2.98185 1.97879 2.95706 3.05745 3.30771 4.03332C2.56166 4.84718 2.14812 5.92953 2.15387 7.05323C2.15387 11.3834 4.69233 12.3341 7.10771 12.6457C6.85464 12.9173 6.65946 13.2412 6.53487 13.5963C6.41029 13.9514 6.3591 14.3298 6.38464 14.7069V16.9998" stroke="black" stroke-width="1.5" stroke-linecap="round" stroke-linejoin="round"/>
<path d="M6.38462 15.4019C4.07692 16.1792 2.15385 15.4019 1 13.0051" stroke="black" stroke-width="1.5" stroke-linecap="round" stroke-linejoin="round"/>
</svg>
