<svg width="19" height="20" viewBox="0 0 19 20" fill="none" xmlns="http://www.w3.org/2000/svg">
<path d="M9.05 3.37L8.61 3.31L3.05 12.9C3.29 13.11 3.45 13.38 3.52 13.68H14.58C14.65 13.38 14.81 13.11 15.05 12.9L9.49 3.31L9.05 3.37ZM3.65 14.53L7.93 17.06C8.22 16.79 8.62 16.63 9.05 16.63C9.48 16.63 9.88 16.79 10.17 17.06L14.45 14.53H3.65ZM9.05 20C8.60444 20 8.17712 19.823 7.86206 19.5079C7.547 19.1929 7.37 18.7656 7.37 18.32L7.46 17.76L3.16 15.21C2.85 15.57 2.4 15.79 1.89 15.79C1.44444 15.79 1.01712 15.613 0.70206 15.2979C0.386999 14.9829 0.21 14.5556 0.21 14.11C0.21 13.32 0.74 12.66 1.47 12.47V7.36C0.64 7.25 0 6.54 0 5.68C0 5.23444 0.177 4.80712 0.492061 4.49206C0.807122 4.177 1.23444 4 1.68 4C2.23 4 2.71 4.26 3.02 4.66L7.43 2.13L7.37 1.68C7.37 0.75 8.12 0 9.05 0C9.98 0 10.73 0.75 10.73 1.68L10.67 2.13L15.08 4.66C15.39 4.26 15.87 4 16.42 4C16.8656 4 17.2929 4.177 17.6079 4.49206C17.923 4.80712 18.1 5.23444 18.1 5.68C18.1 6.54 17.46 7.25 16.63 7.36V12.47C17.36 12.66 17.89 13.32 17.89 14.11C17.89 14.5556 17.713 14.9829 17.3979 15.2979C17.0829 15.613 16.6556 15.79 16.21 15.79C15.7 15.79 15.25 15.57 14.94 15.21L10.64 17.76L10.73 18.32C10.73 18.7656 10.553 19.1929 10.2379 19.5079C9.92288 19.823 9.49556 20 9.05 20ZM7.85 2.86L3.35 5.44L3.37 5.68C3.37 6.39 2.93 7 2.31 7.25L2.34 12.5L7.85 2.86ZM10.25 2.86L15.76 12.5L15.79 7.25C15.17 7 14.73 6.39 14.73 5.68L14.75 5.44L10.25 2.86Z" fill="currentColor"/>
</svg>
