<svg width="27" height="27" viewBox="0 0 27 27" fill="none" xmlns="http://www.w3.org/2000/svg">
<g filter="url(#filter0_d_408_71)">
<path d="M19.5714 10.1071V9.90436C19.5714 9.01064 18.8465 8.28571 17.9528 8.28571H16.5357C16.0526 8.28571 15.5894 8.47761 15.2478 8.8192C14.9062 9.16078 14.7143 9.62407 14.7143 10.1071C14.7143 10.5902 14.9062 11.0535 15.2478 11.3951C15.5894 11.7367 16.0526 11.9286 16.5357 11.9286H17.75C18.2331 11.9286 18.6964 12.1205 19.0379 12.4621C19.3795 12.8036 19.5714 13.2669 19.5714 13.75C19.5714 14.2331 19.3795 14.6964 19.0379 15.0379C18.6964 15.3795 18.2331 15.5714 17.75 15.5714H16.5357C16.0526 15.5714 15.5894 15.3795 15.2478 15.0379C14.9062 14.6964 14.7143 14.2331 14.7143 13.75M12.2857 7.67857V13.75C12.2857 14.2331 12.0938 14.6964 11.7522 15.0379C11.4106 15.3795 10.9474 15.5714 10.4643 15.5714C9.98121 15.5714 9.51793 15.3795 9.17634 15.0379C8.83476 14.6964 8.64286 14.2331 8.64286 13.75M5 1H22V18H5V1Z" stroke="black" shape-rendering="crispEdges"/>
</g>
<defs>
<filter id="filter0_d_408_71" x="0.5" y="0.5" width="26" height="26" filterUnits="userSpaceOnUse" color-interpolation-filters="sRGB">
<feFlood flood-opacity="0" result="BackgroundImageFix"/>
<feColorMatrix in="SourceAlpha" type="matrix" values="0 0 0 0 0 0 0 0 0 0 0 0 0 0 0 0 0 0 127 0" result="hardAlpha"/>
<feOffset dy="4"/>
<feGaussianBlur stdDeviation="2"/>
<feComposite in2="hardAlpha" operator="out"/>
<feColorMatrix type="matrix" values="0 0 0 0 0 0 0 0 0 0 0 0 0 0 0 0 0 0 0.25 0"/>
<feBlend mode="normal" in2="BackgroundImageFix" result="effect1_dropShadow_408_71"/>
<feBlend mode="normal" in="SourceGraphic" in2="effect1_dropShadow_408_71" result="shape"/>
</filter>
</defs>
</svg>
