<svg width="19" height="19" viewBox="0 0 19 19" fill="none" xmlns="http://www.w3.org/2000/svg">
<path d="M4.54873 8.08324C3.52193 8.43004 2.88698 8.90859 2.88698 9.43729C2.88698 10.1581 4.06763 10.7862 5.81098 11.1126C5.16328 11.4399 4.77653 11.8555 4.77653 12.3086C4.77653 13.3651 6.89048 14.2228 9.49828 14.2228C10.1698 14.2228 10.809 14.1658 11.3878 14.063M5.81183 11.1126C6.62358 11.2648 7.55858 11.3506 8.55393 11.3506C10.0057 11.3506 11.3292 11.167 12.3322 10.8644M13.2757 7.90644C12.0763 8.26004 10.4035 8.48019 8.55393 8.48019C4.90318 8.48019 1.94263 7.62339 1.94263 6.56599C1.94263 5.74999 3.70808 5.05299 6.19263 4.77759" stroke="black" stroke-width="1.5" stroke-linecap="round" stroke-linejoin="round"/>
<path d="M18 15.5097C18 16.885 14.1946 18.0002 9.5 18.0002C4.80545 18.0002 1 16.885 1 15.5097C1 14.5322 2.45095 13.6856 5.25 13.2776" stroke="black" stroke-width="1.5" stroke-linecap="round"/>
<path d="M15.246 6.7698C18.8279 5.8399 19.3396 11.4176 14.2218 13.2774M14.2243 1C13.5953 1.10455 12.4113 1.69275 12.713 3.20405C13.0156 4.7145 12.5872 5.51265 12.3356 5.7226M10.4461 1C9.81622 1.1258 8.63217 1.8313 8.93477 3.64435C9.23737 5.4574 8.80897 5.94275 8.55737 6.19435" stroke="black" stroke-width="1.5" stroke-linecap="round" stroke-linejoin="round"/>
</svg>
