<svg width="18" height="20" viewBox="0 0 18 20" fill="none" xmlns="http://www.w3.org/2000/svg">
<path d="M10.8507 1L1.62969 10C1.43053 10.1921 1.27213 10.4224 1.16395 10.6772C1.05576 10.9319 1 11.2058 1 11.4825C1 11.7592 1.05576 12.0331 1.16395 12.2878C1.27213 12.5426 1.43053 12.7729 1.62969 12.965L7.18469 18.386C8.02469 19.205 9.38469 19.205 10.2227 18.386L12.9997 15.676" stroke="black" stroke-width="1.5" stroke-linecap="round" stroke-linejoin="round"/>
<path d="M3.33179 8.3381L7.18379 4.57809C7.59138 4.18425 8.136 3.96411 8.70279 3.96411C9.26957 3.96411 9.8142 4.18425 10.2218 4.57809L12.9988 7.28909M7.99979 11.0001H16.9998" stroke="black" stroke-width="1.5" stroke-linecap="round" stroke-linejoin="round"/>
</svg>
