<svg width="17" height="18" viewBox="0 0 17 18" fill="none" xmlns="http://www.w3.org/2000/svg">
<path d="M8.5 0C8.245 0 7.98056 0.0620689 7.76333 0.17734L0.736667 3.99015C0.283333 4.23842 0 4.69951 0 5.19606V12.8039C0 13.3005 0.283333 13.7616 0.736667 14.0099L2.57833 15.003C3.47556 15.4108 3.77778 15.4197 4.19333 15.4197C5.51556 15.4197 6.28056 14.666 6.28056 13.3537V5.84335C6.28056 5.73695 6.18611 5.64828 6.07278 5.64828H5.19444C5.07167 5.64828 4.97722 5.73695 4.97722 5.84335V13.3537C4.97722 13.9389 4.335 14.5153 3.30556 14.0276L1.36944 12.9901C1.33765 12.9691 1.31164 12.9412 1.29358 12.9088C1.27552 12.8764 1.26591 12.8405 1.26556 12.8039V5.19606C1.26556 5.11626 1.30333 5.04532 1.36944 5.00985L8.39611 1.20591C8.45278 1.17044 8.54722 1.17044 8.60389 1.20591L15.6306 5.00985C15.6967 5.04532 15.7344 5.11626 15.7344 5.19606V12.8039C15.7344 12.8749 15.6967 12.9458 15.6306 12.9901L8.60389 16.7941C8.54722 16.8296 8.45278 16.8296 8.38667 16.7941L6.61111 15.7833C6.53556 15.7567 6.46 15.7478 6.41278 15.7744C5.91222 16.0404 5.81778 16.0936 5.355 16.2266C5.24167 16.2621 5.06222 16.3241 5.42111 16.5103L7.76333 17.8138C7.99 17.9379 8.23556 18 8.5 18C8.76444 18 9.01 17.9379 9.23667 17.8138L16.2633 14.0099C16.7167 13.7616 17 13.3005 17 12.8039V5.19606C17 4.69951 16.7167 4.23842 16.2633 3.99015L9.23667 0.17734C9.01944 0.0620689 8.76444 0 8.5 0ZM10.3889 5.4532C8.38667 5.4532 7.18722 6.24236 7.18722 7.57241C7.18722 9 8.37722 9.41675 10.3039 9.59409C12.5989 9.8069 12.7783 10.1261 12.7783 10.5517C12.7783 11.2877 12.1456 11.598 10.6722 11.598C8.80222 11.598 8.40556 11.1635 8.26389 10.2946C8.25394 10.2497 8.22789 10.2093 8.19007 10.1803C8.15226 10.1512 8.10497 10.1352 8.05611 10.135H7.14944C7.03611 10.135 6.95111 10.2148 6.95111 10.33C6.95111 11.4296 7.59333 12.7596 10.6722 12.7596C12.8917 12.7596 14.1667 11.935 14.1667 10.4985C14.1667 9.07094 13.1467 8.69852 10.9839 8.42365C8.80222 8.15764 8.585 8.01576 8.585 7.53695C8.585 7.13793 8.77389 6.60591 10.3889 6.60591C11.8056 6.60591 12.3628 6.89852 12.58 7.81182C12.5989 7.90049 12.6839 7.96256 12.7783 7.96256H13.6944C13.7417 7.96256 13.7983 7.94483 13.8361 7.90049C13.8739 7.86502 13.9022 7.81182 13.8833 7.75862C13.7511 6.1803 12.6367 5.4532 10.3889 5.4532Z" fill="CurrentColor"/>
</svg>
