<svg width="20" height="17" viewBox="0 0 20 17" fill="none" xmlns="http://www.w3.org/2000/svg">
<path d="M17.2168 9.77257C17.2412 9.77187 17.27 9.77116 17.2994 9.77116C17.8209 9.77116 18.3142 9.90858 18.7519 10.1537L18.7325 10.1438C19.1315 10.3641 19.4591 10.6899 19.6961 11.0894L19.7017 11.0993C19.8887 11.4082 20 11.79 20 12.2008C20 12.2306 19.9994 12.2603 19.9981 12.2894V12.2851C19.9787 12.6953 19.8143 13.0573 19.5617 13.3108L19.5604 13.3123C19.4222 13.466 19.2553 13.5864 19.0696 13.6629L19.0602 13.6664C18.956 13.6901 18.8987 13.6723 18.8882 13.6133C18.8778 13.5543 18.9247 13.4894 19.0289 13.4185C19.3116 13.2244 19.516 12.9113 19.5904 12.5423L19.5923 12.5331C19.5942 12.5033 19.5954 12.4686 19.5954 12.4332C19.5954 12.2129 19.5492 12.0046 19.4673 11.8205L19.4704 11.8282C19.3347 11.5074 19.1321 11.2438 18.8826 11.0533L18.8763 11.049C18.503 10.777 18.0553 10.5985 17.5739 10.5539L17.5639 10.5532C17.4 10.5256 17.2112 10.51 17.0186 10.51C16.5177 10.51 16.0394 10.6169 15.5992 10.8117L15.6255 10.8011C15.7161 11.0413 15.773 11.3196 15.7811 11.6115V11.615C15.7711 12.2136 15.4873 12.7342 15.0652 13.0247L15.0583 13.0289C14.8645 13.1848 14.6431 13.3215 14.4074 13.4277L14.3855 13.4362C14.2423 13.5156 14.0741 13.5616 13.8965 13.5616C13.8759 13.5616 13.8559 13.5609 13.8359 13.5595H13.839C13.4434 13.4655 13.3496 13.0759 13.5576 12.3907C13.6483 12.0925 13.7752 11.8339 13.9359 11.6065L13.9322 11.6115C14.1379 11.3069 14.3636 11.0398 14.6131 10.8032L14.62 10.7969L14.5587 10.6934C14.4443 10.4724 14.3392 10.2153 14.2548 9.94683L14.2461 9.91425C14.1835 9.67813 14.1314 9.45405 14.0897 9.24201L14.0585 8.99408L13.7458 9.66632C13.4749 10.233 13.2143 10.7286 12.9642 11.1532L12.8704 11.3303C12.9755 11.6193 13.053 11.9543 13.088 12.3043L13.0893 12.322C13.0918 12.3553 13.093 12.3949 13.093 12.4346C13.093 12.9715 12.8592 13.4461 12.5002 13.7359L12.4959 13.7394C12.3245 13.8591 12.1201 13.9831 11.9081 14.0936L11.8706 14.1113C11.6498 14.2197 11.3941 14.2905 11.1258 14.3061H11.1202C11.0996 14.3075 11.0752 14.3089 11.0508 14.3089C10.8945 14.3089 10.7463 14.2686 10.6137 14.197L10.62 14.1998C10.5406 14.1226 10.4905 14.0093 10.4905 13.8825C10.4905 13.818 10.5037 13.7564 10.5268 13.7019L10.5256 13.7047C10.7757 13.3073 11.022 12.9616 11.284 12.6315L11.2759 12.6422L11.9637 11.6512L11.8393 11.3324C11.7393 11.1241 11.6436 10.8783 11.5667 10.6233L11.5579 10.5893C11.4954 10.3532 11.4433 10.1291 11.4016 9.91708L11.3703 9.66915L11.0577 10.5192C10.808 11.1799 10.5787 11.7463 10.3699 12.2186C10.0585 12.9269 9.79793 13.47 9.58825 13.8478L9.52572 13.954C9.27602 14.4022 9.03632 14.6263 8.80663 14.6263C8.57694 14.6263 8.42124 14.461 8.33953 14.1304C8.27951 13.8867 8.24449 13.6069 8.24449 13.3179C8.24449 13.2924 8.24449 13.2669 8.24512 13.2414V13.245L8.30764 12.7491V12.7845C8.1409 13.2327 7.97416 13.6457 7.80741 14.0235C7.69673 14.2686 7.58293 14.4775 7.45537 14.6744L7.4635 14.661C7.33469 14.814 7.15335 14.9089 6.95263 14.9089H6.94763C6.9345 14.9103 6.91949 14.9103 6.90449 14.9103C6.74629 14.9103 6.60247 14.8423 6.49367 14.7311C6.27544 14.4775 6.11412 14.1616 6.03033 13.8081L6.0272 13.7932C5.92465 13.4709 5.86588 13.0983 5.86588 12.7102C5.86588 12.6599 5.86713 12.6103 5.869 12.5614V12.5685C5.9184 12.0046 6.01782 11.4882 6.16351 10.9959L6.15038 11.0462L5.02548 11.79V11.8254C5.18868 12.2093 5.28435 12.6599 5.28435 13.1359C5.28435 13.223 5.28123 13.3094 5.27497 13.3944L5.2756 13.3831C5.24246 14.1127 5.03674 14.7807 4.70471 15.3453L4.71283 15.3311C4.36455 15.9573 3.86244 16.4411 3.26591 16.7209L3.24527 16.7294C2.90949 16.9001 2.5168 17 2.10411 17C1.84274 17 1.58887 16.9603 1.34876 16.8852L1.36877 16.8902C1.16992 16.8144 1.00735 16.6642 0.904174 16.4701L0.902298 16.4659C0.756605 16.2265 0.664687 15.9339 0.650305 15.6187V15.6144C0.643427 15.5429 0.639675 15.46 0.639675 15.3757C0.639675 15.0123 0.712834 14.6681 0.843521 14.3613L0.837893 14.3755C1.19681 13.682 1.69329 13.1203 2.28607 12.725L2.30483 12.7137C2.7244 12.3843 3.2065 12.0648 3.70986 11.7864L3.77615 11.7532L3.93247 11.6469C3.74488 11.4816 3.40097 11.1983 2.90073 10.7969C2.2323 10.2897 1.6514 9.77753 1.10364 9.22359L1.11927 9.23918C0.589651 8.72278 0.203846 8.03283 0.0306394 7.24726L0.025637 7.22034C0.0093794 7.11125 0 6.98587 0 6.85837C0 6.45885 0.0906675 6.08342 0.249492 5.75686L0.24449 5.76891C0.594654 4.91604 1.07988 4.19705 1.67516 3.61903L1.68266 3.61194C2.32672 2.92271 3.05581 2.32272 3.84743 1.83678L3.90183 1.80633C4.60904 1.34376 5.43505 0.913788 6.29608 0.568815L6.40238 0.53198C7.20213 0.200467 8.12568 0.00637527 9.08864 0.00283345H9.08989C9.13366 0.00141673 9.18556 0 9.23746 0C10.0134 0 10.7475 0.2033 11.4003 0.565274L11.3716 0.550398C11.9343 0.840827 12.3558 1.38768 12.5246 2.05638L12.5284 2.07338C12.5803 2.30147 12.6097 2.56357 12.6097 2.83345C12.6097 3.28114 12.5277 3.70757 12.3808 4.09434L12.3877 4.07379C12.1201 4.80837 11.7393 5.43385 11.264 5.94883L11.2622 5.95096C10.7807 6.49144 10.2035 6.92354 9.56261 7.21184L9.52822 7.2253C8.85665 7.55186 8.07691 7.75728 7.2584 7.79128L7.24652 7.79199C7.12647 7.80758 6.98765 7.81608 6.84696 7.81608C6.47679 7.81608 6.11974 7.75586 5.78209 7.64323L5.80897 7.65103C5.50696 7.54194 5.24621 7.37264 5.02486 7.15305L5.02736 7.15517C4.87228 7.01208 4.74598 6.8357 4.65593 6.63523L4.65218 6.62603C4.58965 6.43713 4.58444 6.32497 4.63655 6.28955C4.68866 6.25414 4.72513 6.24823 4.74598 6.27184L4.9023 6.44894C5.07676 6.6324 5.28498 6.77691 5.51509 6.86899L5.52759 6.87324C5.84399 6.99792 6.20916 7.07017 6.58871 7.07017C6.71065 7.07017 6.8307 7.06309 6.94888 7.04821L6.9345 7.04963C7.94623 6.91433 8.85853 6.52331 9.64577 5.93537L9.62264 5.95166C10.2879 5.50327 10.8263 4.887 11.2053 4.15242L11.2165 4.12834C11.4047 3.81524 11.5173 3.42848 11.5173 3.01196C11.5173 2.75624 11.4748 2.51115 11.3972 2.28589L11.4016 2.29935C11.1677 1.8807 10.7894 1.58602 10.348 1.50456L10.3392 1.50315C9.99656 1.40752 9.60263 1.35226 9.19806 1.35226C8.87228 1.35226 8.55339 1.38768 8.24512 1.45569L8.27638 1.45002C7.22151 1.66536 6.27857 2.03442 5.40879 2.54161L5.46569 2.51115C2.90282 3.9751 1.57949 5.47423 1.4957 7.00854V7.04325C1.4957 7.66165 1.71018 8.22338 2.05972 8.63848C2.45803 9.14 2.89761 9.58202 3.37846 9.96454L3.40285 9.98296C3.84118 10.3541 4.22886 10.7374 4.58965 11.151L4.59028 11.1525L4.65281 11.2233L6.65374 9.98437C6.88198 9.61036 7.15648 9.29443 7.47163 9.03942L7.48163 9.03163C7.73175 8.79362 8.0494 8.63848 8.39769 8.60732L8.40331 8.60661C8.41582 8.60519 8.4302 8.60519 8.44521 8.60519C8.67844 8.60519 8.87854 8.76457 8.96483 8.99267L8.96608 8.99692C9.03173 9.16338 9.06988 9.35818 9.06988 9.5629C9.06988 9.62523 9.06613 9.68686 9.05925 9.74778L9.05987 9.7407L8.99922 10.0899L9.09301 10.0191C9.15804 9.96312 9.23996 9.92983 9.32875 9.92983C9.38503 9.92983 9.43817 9.94329 9.48632 9.96737L9.48382 9.96596C9.60388 10.0014 9.69079 10.1232 9.69079 10.2677C9.69079 10.2925 9.68829 10.3166 9.68329 10.34L9.68392 10.3378L9.59012 10.7274C9.40253 11.577 9.27768 12.1907 9.21557 12.5685C9.18431 12.691 9.1668 12.832 9.1668 12.9779C9.1668 13.0084 9.16742 13.0381 9.1693 13.0679V13.0636C9.17972 13.2053 9.19535 13.2761 9.2162 13.2761C9.23704 13.2761 9.27852 13.2053 9.34063 13.0636L9.43442 12.8157C9.45527 12.8157 9.45527 12.8275 9.43442 12.8511L9.77833 12.0365C10.5912 10.0068 11.0287 8.87343 11.0908 8.63636L11.2784 7.96412C11.2993 7.9169 11.3826 7.86991 11.5285 7.82316C11.6767 7.77782 11.8462 7.75161 12.0213 7.75161C12.0356 7.75161 12.05 7.75161 12.0638 7.75232H12.0619C12.3537 7.75232 12.4996 7.83497 12.4996 8.00025L12.4683 8.17734C12.3983 8.39552 12.3289 8.66824 12.2751 8.94733L12.2683 8.99196C12.2557 9.08334 12.2482 9.18817 12.2482 9.29585C12.2482 9.43893 12.2607 9.57848 12.2851 9.71378L12.2833 9.70032L12.3145 9.84128C12.3783 10.1367 12.4752 10.3959 12.6022 10.6325L12.5959 10.6205C12.8456 10.1487 13.0853 9.6649 13.315 9.16905C13.4963 8.82691 13.6652 8.43023 13.8008 8.01513L13.8152 7.96554C13.8621 7.69849 13.9159 7.47323 13.9816 7.25363L13.9715 7.2933C13.9924 7.22247 14.0814 7.16934 14.2386 7.13392C14.3874 7.09992 14.5581 7.08079 14.7325 7.08079H14.755H14.7538C15.0456 7.08079 15.2013 7.16344 15.2209 7.32872L15.1584 7.46969C15.0839 7.7077 15.0189 7.99387 14.9751 8.28784L14.9714 8.31972C14.9658 8.38843 14.962 8.46777 14.962 8.54852C14.962 8.71782 14.977 8.88358 15.0052 9.04367L15.0027 9.02738V9.16834C15.0746 9.47719 15.1815 9.74849 15.3216 9.99429L15.3153 9.98296L15.4091 10.2309C15.9312 9.94045 16.5453 9.77045 17.1943 9.77045H17.2187H17.2174L17.2168 9.77257ZM3.81116 14.9103C4.24574 14.4017 4.51399 13.7075 4.51399 12.9425C4.51399 12.6471 4.47397 12.3623 4.40019 12.0946L4.40519 12.1144L3.90496 12.4686C3.39472 12.798 2.95326 13.1656 2.5537 13.5836L2.5587 13.5786C2.25543 13.8945 2.03158 14.3033 1.92153 14.7644L1.91777 14.7821C1.82398 15.2189 1.87088 15.5023 2.05847 15.6322C2.17289 15.6917 2.30733 15.7264 2.44802 15.7264C2.60184 15.7264 2.74754 15.6853 2.87572 15.6116L2.8701 15.6144C3.24152 15.4614 3.55604 15.2185 3.80616 14.9075L3.80804 14.9054L3.81116 14.9103ZM7.99875 11.649C8.10297 11.3421 8.2176 10.9761 8.34266 10.5511C8.50941 9.98437 8.56672 9.65404 8.51462 9.56007C8.46251 9.46609 8.3635 9.45428 8.2176 9.52465C8.04377 9.62028 7.89808 9.75132 7.78177 9.91212L7.7799 9.91495C7.64984 10.1013 7.52603 10.3095 7.41598 10.5284L7.40472 10.5525C7.27841 10.7869 7.17149 11.0568 7.09708 11.343L7.09145 11.3671C6.97077 11.7376 6.90074 12.1661 6.90074 12.6124C6.90074 12.6726 6.90199 12.7321 6.90449 12.7916V12.7831C6.92533 13.2549 6.99203 13.5087 7.10458 13.5446C7.21713 13.5805 7.3474 13.4093 7.49539 13.031C7.63858 12.7385 7.76614 12.3985 7.86119 12.0422L7.86994 12.0039C7.93205 11.8367 7.97457 11.7184 7.9975 11.649H7.99875ZM11.4666 13.5262C11.9 13.3059 12.2051 12.8419 12.2476 12.2929L12.2482 12.2873V12.2518L11.9043 12.7477L11.2797 13.5269C11.2703 13.5354 11.264 13.5481 11.264 13.5623C11.264 13.5765 11.2703 13.5892 11.279 13.5977C11.299 13.6209 11.3616 13.5966 11.4666 13.5262ZM14.1548 12.8532C14.6275 12.7002 14.9676 12.215 14.9676 11.6405C14.9676 11.6313 14.9676 11.6221 14.9676 11.6129V11.6143C14.9614 11.4726 14.9389 11.3395 14.902 11.2134L14.9045 11.224C14.6612 11.4691 14.4618 11.7624 14.3173 12.0932L14.3105 12.1095C14.1225 12.534 14.0699 12.7815 14.1529 12.8518L14.1548 12.8532Z" fill="CurrentColor"/>
</svg>
