<svg width="14" height="17" viewBox="0 0 14 17" fill="none" xmlns="http://www.w3.org/2000/svg">
<path d="M7.10199 10.151C6.81572 10.2853 6.50207 10.4604 5.87417 10.8122C5.63611 10.949 5.38733 11.0857 5.15581 11.2146C5.13974 11.1981 5.12307 11.1775 5.10701 11.1605C3.8649 9.80522 1.56757 8.84804 1.66518 7.02788C1.70148 6.36485 1.92467 4.6243 6.07712 2.5106C9.49455 0.790721 12.2138 1.26718 12.6834 2.32403C13.3583 3.8306 11.2259 6.63407 7.69656 7.04064C7.30595 7.1215 6.90253 7.11171 6.51613 7.01199C6.12972 6.91227 5.77019 6.72517 5.4641 6.46451C5.27722 6.25728 5.24925 6.24512 5.18021 6.28645C5.06653 6.34722 5.13974 6.53501 5.18021 6.64258C5.31484 6.89147 5.49697 7.11028 5.71583 7.28606C5.93469 7.46185 6.18585 7.59104 6.45445 7.666C7.84333 7.97254 9.29141 7.82608 10.5944 7.24727C12.7334 6.40192 14.4035 4.05181 13.9142 2.08155C13.4232 0.0839275 10.176 -0.574855 7.10378 0.539727C5.17978 1.20179 3.40218 2.244 1.87229 3.60695C0.179648 5.22352 -0.088175 6.6286 0.021335 7.21689C0.415333 9.30566 3.23522 10.6652 4.36603 11.6722C4.3073 11.7046 4.25592 11.7336 4.21188 11.7591C3.64766 12.0453 1.49674 13.1933 0.960503 14.4076C0.351651 15.7835 1.05811 16.7698 1.52472 16.9023C2.2279 17.0745 2.96618 17.0181 3.63641 16.7409C4.30663 16.4637 4.8753 15.9796 5.26294 15.3563C5.59223 14.8395 5.79443 14.2492 5.85235 13.6355C5.91028 13.0218 5.82221 12.4029 5.59563 11.8314C5.72926 11.7224 5.87183 11.6255 6.02177 11.5415C6.30983 11.3677 6.5842 11.1963 6.82762 11.0638C7.66124 10.6657 8.57068 10.4604 9.49098 10.4628C11.4229 10.6949 11.8044 11.9256 11.7312 12.444C11.6968 12.6279 11.6243 12.8021 11.5186 12.9551C11.4129 13.108 11.2763 13.2361 11.1182 13.3307C10.9842 13.4176 10.9396 13.4468 10.9515 13.5087C10.9676 13.5999 11.0324 13.5957 11.1461 13.5792C11.4364 13.4856 11.6921 13.3044 11.8797 13.0596C12.0673 12.8148 12.178 12.5178 12.1972 12.2076C12.2567 10.9921 11.1217 9.65876 9.11245 9.67091C8.51089 9.6727 7.9154 9.79386 7.3591 10.0277C7.26983 10.0653 7.18313 10.1058 7.09902 10.1492L7.10199 10.151ZM4.23033 14.915C3.58874 15.6279 2.696 15.8971 2.31033 15.6692C1.89372 15.4261 2.05858 14.3717 2.84598 13.6175C3.31194 13.188 3.81603 12.8037 4.35174 12.4695C4.44518 12.4087 4.58326 12.3285 4.74931 12.2264L4.79395 12.2015L4.89156 12.1407C5.03186 12.6215 5.04458 13.1317 4.9284 13.6192C4.81222 14.1067 4.57131 14.5539 4.23033 14.915Z" fill="black"/>
</svg>
