<svg width="15" height="17" viewBox="0 0 15 17" fill="none" xmlns="http://www.w3.org/2000/svg">
<path d="M0.335839 8.13043C0.424229 8.13043 0.508999 8.0915 0.571501 8.02219C0.634002 7.95289 0.669115 7.85888 0.669115 7.76087V1.1087C0.669115 1.01068 0.704228 0.916681 0.76673 0.847374C0.829231 0.778067 0.914001 0.739131 1.00239 0.739131H8.66775V5.54348C8.66775 5.64149 8.70286 5.73549 8.76536 5.8048C8.82786 5.87411 8.91263 5.91304 9.00102 5.91304H13.3336V7.76087C13.3336 7.85888 13.3687 7.95289 13.4312 8.02219C13.4937 8.0915 13.5785 8.13043 13.6669 8.13043C13.7553 8.13043 13.8401 8.0915 13.9026 8.02219C13.9651 7.95289 14.0002 7.85888 14.0002 7.76087V5.54348C14.0002 5.49493 13.9916 5.44685 13.9749 5.40199C13.9582 5.35713 13.9336 5.31636 13.9027 5.28201L9.23682 0.108098C9.20584 0.0737896 9.16908 0.0465843 9.12862 0.0280366C9.08816 0.0094888 9.0448 -3.806e-05 9.00102 1.1427e-07H1.00239C0.737221 1.1427e-07 0.48291 0.116809 0.295406 0.32473C0.107901 0.53265 0.00256253 0.814651 0.00256253 1.1087V7.76087C0.00256253 7.85888 0.0376755 7.95289 0.100177 8.02219C0.162678 8.0915 0.247449 8.13043 0.335839 8.13043ZM9.3343 1.26114L12.8629 5.17391H9.3343V1.26114ZM15 16.6304C15 16.7284 14.9649 16.8225 14.9024 16.8918C14.8399 16.9611 14.7551 17 14.6667 17H12.3338C12.2454 17 12.1606 16.9611 12.0981 16.8918C12.0356 16.8225 12.0005 16.7284 12.0005 16.6304V11.4565C12.0005 11.3585 12.0356 11.2645 12.0981 11.1952C12.1606 11.1259 12.2454 11.087 12.3338 11.087C12.4222 11.087 12.507 11.1259 12.5695 11.1952C12.632 11.2645 12.6671 11.3585 12.6671 11.4565V16.2609H14.6667C14.7551 16.2609 14.8399 16.2998 14.9024 16.3691C14.9649 16.4384 15 16.5324 15 16.6304ZM3.6561 15.5033C3.6353 15.7331 3.56903 15.955 3.46203 16.1532C3.35502 16.3514 3.20992 16.521 3.03704 16.6498C2.66877 16.9187 2.20052 17 1.76893 17C1.36956 16.9962 0.972151 16.9376 0.585796 16.8254C0.503632 16.7963 0.434846 16.733 0.3939 16.6488C0.352955 16.5646 0.343038 16.4661 0.366235 16.374C0.389433 16.2818 0.443937 16.2033 0.51829 16.1548C0.592643 16.1063 0.681053 16.0917 0.764932 16.114C1.11654 16.2221 2.1447 16.4179 2.66711 16.0327C2.76038 15.9628 2.83815 15.8703 2.89457 15.7623C2.951 15.6543 2.98461 15.5335 2.99288 15.409C3.06204 14.8131 2.62795 14.6061 1.68977 14.3059C0.883245 14.0472 -0.119916 13.7257 0.0117277 12.5717C0.0318998 12.3474 0.0962314 12.1308 0.200178 11.9372C0.304124 11.7435 0.44515 11.5776 0.613292 11.451C0.993227 11.1673 1.5298 11.0482 2.20469 11.098C2.49881 11.1195 2.79069 11.1693 3.07704 11.2468C3.15961 11.2742 3.2294 11.336 3.27175 11.4193C3.31409 11.5025 3.3257 11.6007 3.30414 11.6933C3.28257 11.7858 3.22951 11.8655 3.15609 11.9156C3.08268 11.9657 2.99461 11.9823 2.9104 11.9619C2.55213 11.8575 1.50981 11.6736 0.989061 12.0645C0.899245 12.1314 0.824409 12.2203 0.77026 12.3242C0.716112 12.4281 0.684082 12.5443 0.676614 12.6641C0.621623 13.1417 1.00073 13.3108 1.87808 13.5954C2.69127 13.8587 3.80608 14.2135 3.6561 15.5033ZM7.66792 11.087C6.38147 11.087 5.33498 12.4128 5.33498 14.0435C5.33498 15.6742 6.38147 17 7.66792 17C8.16538 16.9969 8.64617 16.8008 9.02685 16.4457L9.43178 16.8938C9.49485 16.9601 9.57878 16.9965 9.66568 16.9951C9.75259 16.9938 9.83559 16.9549 9.897 16.8867C9.9584 16.8185 9.99334 16.7264 9.99438 16.63C9.99541 16.5336 9.96246 16.4406 9.90254 16.3708L9.48094 15.9033C9.82344 15.3579 10.0051 14.7081 10.0009 14.0435C10.0009 12.4128 8.95437 11.087 7.66792 11.087ZM7.66792 16.2609C6.75141 16.2609 6.00154 15.2658 6.00154 14.0435C6.00154 12.8211 6.75141 11.8261 7.66792 11.8261C8.58443 11.8261 9.3343 12.8211 9.3343 14.0435C9.33697 14.5115 9.22153 14.9711 9.00102 15.3702L8.5686 14.8907C8.53793 14.855 8.50112 14.8264 8.46034 14.8067C8.41956 14.787 8.37564 14.7765 8.33116 14.776C8.28668 14.7754 8.24254 14.7847 8.20135 14.8033C8.16016 14.8219 8.12274 14.8495 8.09132 14.8844C8.05989 14.9193 8.03508 14.9608 8.01836 15.0066C8.00164 15.0523 7.99333 15.1012 7.99394 15.1505C7.99455 15.1999 8.00406 15.2486 8.0219 15.2937C8.03975 15.3389 8.06557 15.3797 8.09785 15.4136L8.5536 15.919C8.30038 16.138 7.98904 16.2582 7.66792 16.2609Z" fill="black"/>
</svg>
