<svg width="14" height="16" viewBox="0 0 16 12" fill="none" xmlns="http://www.w3.org/2000/svg">
<path fill-rule="evenodd" clip-rule="evenodd" d="M4.99301 2.50249C4.99312 3.07882 4.79411 3.63748 4.42966 4.08394C4.0652 4.5304 3.55769 4.83723 2.99301 4.95249V9.27249C3.14234 9.18582 3.30301 9.11916 3.47501 9.07249C3.73101 9.00349 4.02601 9.00449 4.42401 9.00449H7.49401C7.99101 9.00449 8.14201 9.00049 8.25301 8.97049C8.42253 8.92505 8.57711 8.8358 8.70121 8.71169C8.82531 8.58759 8.91457 8.43301 8.96001 8.26349C8.98239 8.16173 8.99246 8.05765 8.99001 7.95349C8.38298 7.82958 7.84359 7.4847 7.47641 6.9857C7.10922 6.4867 6.9404 5.86913 7.00267 5.25273C7.06493 4.63633 7.35386 4.065 7.81343 3.64952C8.273 3.23404 8.87047 3.004 9.49001 3.004C10.1095 3.004 10.707 3.23404 11.1666 3.64952C11.6262 4.065 11.9151 4.63633 11.9773 5.25273C12.0396 5.86913 11.8708 6.4867 11.5036 6.9857C11.1364 7.4847 10.597 7.82958 9.99001 7.95349C9.98501 8.17049 9.97001 8.35349 9.92501 8.52049C9.83479 8.85878 9.65692 9.16727 9.40935 9.41484C9.16179 9.6624 8.85329 9.84027 8.51501 9.93049C8.25901 9.99849 7.96501 9.99849 7.56601 9.99849H4.49601C3.99901 9.99849 3.84801 10.0025 3.73701 10.0325C3.56748 10.0779 3.4129 10.1672 3.2888 10.2913C3.1647 10.4154 3.07545 10.57 3.03001 10.7395C3.00762 10.8412 2.99755 10.9453 3.00001 11.0495C3.60703 11.1734 4.14642 11.5183 4.5136 12.0173C4.88079 12.5163 5.04962 13.1339 4.98735 13.7503C4.92508 14.3667 4.63615 14.938 4.17658 15.3535C3.71701 15.7689 3.11954 15.999 2.50001 15.999C1.88047 15.999 1.283 15.7689 0.823429 15.3535C0.363861 14.938 0.0749344 14.3667 0.0126653 13.7503C-0.0496039 13.1339 0.11922 12.5163 0.486407 12.0173C0.853594 11.5183 1.39298 11.1734 2.00001 11.0495V4.94949C1.53655 4.85489 1.10944 4.63074 0.768282 4.30309C0.427127 3.97544 0.185926 3.55772 0.0726936 3.09846C-0.0405388 2.6392 -0.021156 2.15724 0.128591 1.70855C0.278338 1.25987 0.552304 0.862869 0.918669 0.563671C1.28503 0.264473 1.72876 0.0753509 2.19832 0.0182707C2.66788 -0.0388095 3.144 0.0384945 3.57138 0.241204C3.99875 0.443914 4.35986 0.763711 4.61274 1.16345C4.86562 1.56319 4.99991 2.02648 5.00001 2.49949L4.99301 2.50249ZM2.49301 4.00249C2.89096 4.00236 3.27257 3.84414 3.55387 3.56265C3.83518 3.28116 3.99314 2.89945 3.99301 2.50149C3.99287 2.10353 3.83466 1.72193 3.55317 1.44062C3.27167 1.15932 2.88996 1.00136 2.49201 1.00149C2.09405 1.00162 1.71244 1.15984 1.43114 1.44133C1.14983 1.72282 0.991873 2.10453 0.992006 2.50249C0.992138 2.90045 1.15035 3.28205 1.43185 3.56336C1.71334 3.84466 2.09505 4.00262 2.49301 4.00249ZM9.49301 7.00249C9.69005 7.00243 9.88516 6.96355 10.0672 6.88808C10.2492 6.81261 10.4146 6.70203 10.5539 6.56265C10.6932 6.42327 10.8036 6.25782 10.879 6.07575C10.9543 5.89367 10.9931 5.69854 10.993 5.50149C10.9929 5.30444 10.9541 5.10934 10.8786 4.92731C10.8031 4.74529 10.6925 4.57991 10.5532 4.44062C10.4138 4.30134 10.2483 4.19087 10.0663 4.11552C9.88419 4.04017 9.68905 4.00143 9.49201 4.00149C9.09405 4.00162 8.71244 4.15984 8.43114 4.44133C8.14983 4.72282 7.99187 5.10453 7.99201 5.50249C7.99214 5.90045 8.15035 6.28205 8.43185 6.56336C8.71334 6.84466 9.09505 7.00262 9.49301 7.00249ZM3.99301 13.5025C3.99294 13.6995 3.95406 13.8946 3.8786 14.0767C3.80313 14.2587 3.69255 14.4241 3.55317 14.5634C3.41379 14.7026 3.24833 14.8131 3.06626 14.8885C2.88419 14.9638 2.68905 15.0026 2.49201 15.0025C2.29496 15.0024 2.09985 14.9635 1.91783 14.8881C1.7358 14.8126 1.57043 14.702 1.43114 14.5627C1.29185 14.4233 1.18138 14.2578 1.10603 14.0757C1.03069 13.8937 0.99194 13.6985 0.992006 13.5015C0.992138 13.1035 1.15035 12.7219 1.43185 12.4406C1.71334 12.1593 2.09505 12.0014 2.49301 12.0015C2.89096 12.0016 3.27257 12.1598 3.55387 12.4413C3.83518 12.7228 3.99314 13.1045 3.99301 13.5025Z" stroke="CurrentColor"/>
</svg>
