<svg width="24" height="24" viewBox="0 0 24 24" fill="none" xmlns="http://www.w3.org/2000/svg">
<path d="M8.52512 4.62997L3.39312 3.71497C3.17468 3.67442 2.94922 3.69689 2.74309 3.77977C2.53696 3.86265 2.35868 4.0025 2.22912 4.18297C2.09295 4.36584 2.01369 4.58477 2.00124 4.81242C1.98879 5.04008 2.0437 5.26635 2.15912 5.46297L11.0601 21.043C11.1639 21.2246 11.314 21.3754 11.4951 21.48C11.6762 21.5846 11.8818 21.6393 12.0909 21.6385C12.3001 21.6377 12.5053 21.5814 12.6856 21.4753C12.8658 21.3693 13.0148 21.2174 13.1171 21.035L21.8461 5.45697C22.3361 4.58197 21.5841 3.53997 20.6041 3.71797L16.0301 4.53097L15.8241 5.28497L20.7301 4.41397C20.8184 4.39811 20.9094 4.40764 20.9925 4.44144C21.0756 4.47525 21.1474 4.53195 21.1996 4.60495C21.2517 4.67795 21.2821 4.76425 21.2872 4.85383C21.2922 4.9434 21.2717 5.03257 21.2281 5.11097L12.5001 20.689C12.4521 20.7757 12.3779 20.8451 12.2881 20.8871C12.1983 20.9291 12.0975 20.9417 12.0001 20.923C11.9321 20.9108 11.8677 20.8838 11.8113 20.8438C11.755 20.8039 11.7081 20.7521 11.6741 20.692L2.77212 5.11197C2.72781 5.03366 2.70671 4.94436 2.71128 4.8545C2.71585 4.76464 2.7459 4.67794 2.79792 4.60453C2.84993 4.53111 2.92177 4.47402 3.00504 4.43992C3.0883 4.40583 3.17955 4.39613 3.26812 4.41197L8.40112 5.32797L8.47512 5.34097L8.52512 4.62997Z" fill="CurrentColor"/>
<path d="M15.097 5.25999L15.259 4.66699L14.659 4.77399L15.097 5.25999ZM9.21699 4.75399L9.72999 4.84399L9.18799 5.27099L9.21699 4.75399Z" fill="CurrentColor"/>
<path d="M15.5491 2.36688L9.44908 3.62688C9.39947 3.63727 9.35496 3.66447 9.32308 3.70388C9.29043 3.74434 9.2712 3.79398 9.26808 3.84588L8.89308 10.5309C8.89073 10.5671 8.89662 10.6034 8.9103 10.637C8.92398 10.6706 8.94511 10.7006 8.97208 10.7249C8.9978 10.7489 9.02913 10.766 9.0632 10.7748C9.09727 10.7835 9.13299 10.7835 9.16708 10.7749L10.8651 10.3609C11.0251 10.3229 11.1671 10.4709 11.1351 10.6389L10.6301 13.2449C10.5961 13.4209 10.7521 13.5709 10.9151 13.5189L11.9641 13.1829C12.1261 13.1309 12.2831 13.2809 12.2481 13.4569L11.4471 17.5499C11.3971 17.8069 11.7191 17.9459 11.8541 17.7269L11.9441 17.5799L16.9141 7.11588C16.9981 6.94088 16.8541 6.74088 16.6721 6.77788L14.9241 7.13388C14.7591 7.16788 14.6201 7.00588 14.6661 6.83688L15.8061 2.66388C15.8531 2.49388 15.7131 2.33288 15.5491 2.36688Z" fill="CurrentColor"/>
</svg>
