<svg width="19" height="21" viewBox="0 0 19 21" fill="none" xmlns="http://www.w3.org/2000/svg">
<path d="M6.5 3L1.32389 2.1579C1.11638 2.11722 0.902197 2.13977 0.706379 2.22291C0.510561 2.30605 0.341206 2.44634 0.21812 2.62739C0.0887659 2.81083 0.0134715 3.03046 0.00164457 3.25883C-0.0101824 3.48721 0.0419824 3.7142 0.151621 3.91144L8.60736 19.5408C8.70594 19.7229 8.84853 19.8742 9.02057 19.9792C9.19261 20.0841 9.38794 20.139 9.58662 20.1382C9.78531 20.1374 9.98023 20.0809 10.1515 19.9745C10.3228 19.8682 10.4642 19.7157 10.5615 19.5328L18.8538 3.90542C19.3193 3.02765 18.6049 1.98235 17.6739 2.16091L13.3287 2.97649L13.133 3.73288L17.7936 2.85912C17.8775 2.84321 17.964 2.85276 18.0429 2.88668C18.1219 2.92059 18.1901 2.97747 18.2396 3.0507C18.2892 3.12393 18.318 3.21051 18.3228 3.30037C18.3276 3.39023 18.3082 3.47968 18.2667 3.55833L9.97532 19.1857C9.92972 19.2727 9.85922 19.3423 9.77391 19.3844C9.68859 19.4266 9.59284 19.4392 9.50034 19.4204C9.43576 19.4082 9.37454 19.3811 9.32101 19.341C9.26748 19.301 9.22297 19.249 9.19064 19.1887L0.733957 3.55933C0.691868 3.48077 0.671823 3.39119 0.676163 3.30104C0.680503 3.2109 0.709049 3.12392 0.758465 3.05028C0.807882 2.97663 0.876127 2.91936 0.955225 2.88515C1.03432 2.85095 1.12101 2.84122 1.20514 2.85711L6.5 4V3.5V3Z" fill="black"/>
<path d="M14.3154 0.250977C14.3294 0.248558 14.3404 0.25013 14.3477 0.25293L12.9385 4.54883H12.9375C12.875 4.73981 12.9436 4.9228 13.0645 5.03906C13.169 5.1396 13.3157 5.19583 13.4717 5.1875L13.5381 5.18066L15.71 4.8125C15.7218 4.8105 15.7314 4.81154 15.7383 4.81348L9.58008 15.6006L9.47949 15.7393C9.47549 15.7445 9.47176 15.7474 9.46484 15.749C9.45516 15.7513 9.44083 15.7501 9.42676 15.7451C9.42503 15.7445 9.42327 15.7438 9.42188 15.7432L10.4141 11.5293L10.4131 11.5283C10.46 11.3287 10.3728 11.1514 10.2422 11.0469C10.1291 10.9564 9.97632 10.9115 9.82031 10.9336L9.75293 10.9473L8.44922 11.2949C8.43042 11.2998 8.41621 11.2947 8.40723 11.29L9.03027 8.61523L9.03125 8.61426C9.07478 8.42414 8.99548 8.25184 8.87207 8.14551C8.74975 8.04028 8.57773 7.99102 8.40332 8.02539H8.40137L6.29102 8.4541H6.26465C6.26078 8.45328 6.25703 8.45215 6.25488 8.45117C6.25334 8.45044 6.25219 8.45036 6.25195 8.4502L6.25098 8.44922L6.71484 1.56055C6.71553 1.56008 6.71723 1.55937 6.71875 1.55859L6.73438 1.55371L14.3154 0.250977Z" stroke="black" stroke-width="0.5"/>
</svg>
